<?xml version="1.0" encoding="utf-8"?>
<!-- Generator: Adobe Illustrator 27.5.0, SVG Export Plug-In . SVG Version: 6.00 Build 0)  -->
<svg version="1.1" xmlns="http://www.w3.org/2000/svg" xmlns:xlink="http://www.w3.org/1999/xlink" x="0px" y="0px"
	 viewBox="0 0 2475 1650" style="enable-background:new 0 0 2475 1650;" xml:space="preserve">
<g id="Background">
	<rect style="fill:#FFFFFF;" width="2475" height="1650"/>
</g>
<g id="Illustration">
	<g>
		<linearGradient id="SVGID_1_" gradientUnits="userSpaceOnUse" x1="251.1347" y1="908.4745" x2="2290.7944" y2="908.4745">
			<stop  offset="0" style="stop-color:#DAE3FE"/>
			<stop  offset="1" style="stop-color:#E9EFFD"/>
		</linearGradient>
		<path style="fill:url(#SVGID_1_);" d="M786.156,330.952c-31.939,9.27-79.703,51.41-121.586,118.623
			c-51.52,82.677-82.131,89.919-155.016,49.186c-72.886-40.733-158.505-13.368-220.472,95.091
			c-61.967,108.459,46.585,192.782,147.196,324.914c100.611,132.131-100.27,97.954-165.346,252.281
			c-65.075,154.327,26.702,327.453,328.673,325.392c302.385-2.063,759.493,1.89,759.493,1.89s423.911,36.483,578.279-57.781
			c154.367-94.265-35.507-140.106,108.066-200.377c143.573-60.271,293.432-64.34,230.65-220.129
			c-62.782-155.789-151.625-123.527-208.963-165.182c-57.338-41.656-91.828-86.875-9.843-161.011
			c81.985-74.136,144.746-124.087,103.3-222.31c-59.463-140.92-203.766-159.102-362.303-99.372
			c-158.537,59.73-185.455,136.215-447.107,91.936C1205.241,439.406,1058.139,252.013,786.156,330.952z"/>
		<g>
			<g>
				
					<linearGradient id="SVGID_00000180360869586181711810000001434755529099049346_" gradientUnits="userSpaceOnUse" x1="2427.4192" y1="546.2944" x2="817.6797" y2="129.6036">
					<stop  offset="0" style="stop-color:#4042E2"/>
					<stop  offset="1" style="stop-color:#4F52FF"/>
				</linearGradient>
				
					<circle style="fill:url(#SVGID_00000180360869586181711810000001434755529099049346_);" cx="1255.104" cy="242.833" r="67.552"/>
				<g>
					<path style="fill:#BDD0FB;" d="M1238.31,220.489c0-1.741-1.411-3.152-3.152-3.152h-11.036c-1.741,0-3.152,1.411-3.152,3.152
						v50.343c0,1.741,1.411,3.153,3.152,3.153h11.036c1.741,0,3.152-1.411,3.152-3.153V220.489z"/>
					<path style="fill:#BDD0FB;" d="M1277.449,217.336h-11.393v-13.553c0-4.372-2.307-7.257-6.679-7.257h-0.28
						c-4.372,0-7.917,3.215-7.917,7.586l-3.773,13.492c-1.741,0-4.473,1.246-4.473,2.988v51.712c0,1.741,4.053,3.991,5.794,3.991
						h2.452h26.269c6.54,0,11.728-6.141,11.728-12.681v-34.333C1289.177,222.742,1283.989,217.336,1277.449,217.336z"/>
				</g>
			</g>
			<g>
				
					<linearGradient id="SVGID_00000045618626397692329290000011440323994135760526_" gradientUnits="userSpaceOnUse" x1="2013.4435" y1="893.6248" x2="403.6966" y2="476.9322">
					<stop  offset="0" style="stop-color:#4042E2"/>
					<stop  offset="1" style="stop-color:#4F52FF"/>
				</linearGradient>
				<circle style="fill:url(#SVGID_00000045618626397692329290000011440323994135760526_);" cx="519.935" cy="507.021" r="43.427"/>
				<g>
					<path style="fill:#BDD0FB;" d="M509.139,492.656c0-1.119-0.907-2.027-2.027-2.027h-7.095c-1.119,0-2.027,0.907-2.027,2.027
						v32.364c0,1.119,0.907,2.027,2.027,2.027h7.095c1.119,0,2.027-0.907,2.027-2.027V492.656z"/>
					<path style="fill:#BDD0FB;" d="M534.301,490.63h-7.324v-8.713c0-2.81-1.483-4.665-4.294-4.665h-0.18
						c-2.811,0-5.089,2.067-5.089,4.877l-2.425,8.674c-1.119,0-2.876,0.801-2.876,1.921v33.244c0,1.119,2.605,2.566,3.725,2.566
						h1.576h16.888c4.204,0,7.54-3.948,7.54-8.152V498.31C541.84,494.105,538.505,490.63,534.301,490.63z"/>
				</g>
			</g>
			<g>
				
					<linearGradient id="SVGID_00000121971106332038466330000001947578330063579528_" gradientUnits="userSpaceOnUse" x1="1825.3333" y1="281.6809" x2="215.5881" y2="-135.0113">
					<stop  offset="0" style="stop-color:#4042E2"/>
					<stop  offset="1" style="stop-color:#4F52FF"/>
				</linearGradient>
				
					<circle style="fill:url(#SVGID_00000121971106332038466330000001947578330063579528_);" cx="1453.049" cy="185.313" r="43.427"/>
				<g>
					<path style="fill:#BDD0FB;" d="M1442.253,170.948c0-1.119-0.907-2.027-2.027-2.027h-7.095c-1.119,0-2.027,0.907-2.027,2.027
						v32.364c0,1.119,0.907,2.027,2.027,2.027h7.095c1.119,0,2.027-0.907,2.027-2.027V170.948z"/>
					<path style="fill:#BDD0FB;" d="M1467.414,168.921h-7.324v-8.713c0-2.81-1.483-4.665-4.294-4.665h-0.18
						c-2.811,0-5.089,2.067-5.089,4.877l-2.425,8.674c-1.119,0-2.876,0.801-2.876,1.921v33.244c0,1.119,2.605,2.566,3.725,2.566
						h1.576h16.887c4.205,0,7.54-3.948,7.54-8.152v-22.072C1474.954,172.397,1471.619,168.921,1467.414,168.921z"/>
				</g>
			</g>
			<g>
				
					<linearGradient id="SVGID_00000019647074544563098950000015788618728528399767_" gradientUnits="userSpaceOnUse" x1="2361.6968" y1="575.7748" x2="751.9503" y2="159.0822">
					<stop  offset="0" style="stop-color:#4042E2"/>
					<stop  offset="1" style="stop-color:#4F52FF"/>
				</linearGradient>
				<circle style="fill:url(#SVGID_00000019647074544563098950000015788618728528399767_);" cx="2061.89" cy="498.168" r="43.427"/>
				<g>
					<path style="fill:#BDD0FB;" d="M2051.094,483.803c0-1.119-0.907-2.027-2.027-2.027h-7.095c-1.119,0-2.027,0.907-2.027,2.027
						v32.364c0,1.119,0.907,2.027,2.027,2.027h7.095c1.119,0,2.027-0.907,2.027-2.027V483.803z"/>
					<path style="fill:#BDD0FB;" d="M2076.256,481.777h-7.324v-8.713c0-2.81-1.483-4.665-4.294-4.665h-0.18
						c-2.811,0-5.089,2.067-5.089,4.877l-2.426,8.674c-1.119,0-2.876,0.801-2.876,1.921v33.244c0,1.119,2.605,2.566,3.725,2.566
						h1.576h16.887c4.204,0,7.54-3.948,7.54-8.152v-22.072C2083.795,485.252,2080.46,481.777,2076.256,481.777z"/>
				</g>
			</g>
			<g>
				
					<linearGradient id="SVGID_00000088128758738935249060000000135029907071332766_" gradientUnits="userSpaceOnUse" x1="1819.8518" y1="357.9082" x2="210.105" y2="-58.7844">
					<stop  offset="0" style="stop-color:#4042E2"/>
					<stop  offset="1" style="stop-color:#4F52FF"/>
				</linearGradient>
				<circle style="fill:url(#SVGID_00000088128758738935249060000000135029907071332766_);" cx="1073.921" cy="164.82" r="43.427"/>
				<g>
					<path style="fill:#BDD0FB;" d="M1063.125,150.455c0-1.119-0.907-2.027-2.027-2.027h-7.095c-1.119,0-2.027,0.907-2.027,2.027
						v32.364c0,1.119,0.907,2.027,2.027,2.027h7.095c1.119,0,2.027-0.907,2.027-2.027V150.455z"/>
					<path style="fill:#BDD0FB;" d="M1088.286,148.428h-7.324v-8.713c0-2.811-1.483-4.665-4.294-4.665h-0.18
						c-2.811,0-5.089,2.066-5.089,4.877l-2.425,8.674c-1.119,0-2.876,0.801-2.876,1.921v33.244c0,1.12,2.605,2.566,3.725,2.566
						h1.576h16.887c4.204,0,7.54-3.948,7.54-8.152v-22.072C1095.826,151.904,1092.491,148.428,1088.286,148.428z"/>
				</g>
			</g>
			<g>
				
					<linearGradient id="SVGID_00000173124215011695729810000008604115341076611767_" gradientUnits="userSpaceOnUse" x1="2141.1685" y1="526.1163" x2="531.4224" y2="109.4238">
					<stop  offset="0" style="stop-color:#4042E2"/>
					<stop  offset="1" style="stop-color:#4F52FF"/>
				</linearGradient>
				<circle style="fill:url(#SVGID_00000173124215011695729810000008604115341076611767_);" cx="826.488" cy="185.803" r="54.803"/>
				<path style="fill:#BDD0FB;" d="M849.989,170.543c-5.946-5.845-15.22-4.086-21.605,1.274c-0.915,0.768-2.241,0.777-3.169,0.025
					c-6.47-5.247-15.734-6.845-21.578-0.899c-6.345,6.456-6.256,16.832,0.2,23.177l21.599,21.231
					c0.981,0.964,2.559,0.951,3.523-0.031l21.23-21.599C856.533,187.264,856.444,176.888,849.989,170.543z"/>
			</g>
			<g>
				
					<linearGradient id="SVGID_00000016072666324177316260000008008028886647812776_" gradientUnits="userSpaceOnUse" x1="2181.1267" y1="390.7911" x2="571.3808" y2="-25.9014">
					<stop  offset="0" style="stop-color:#4042E2"/>
					<stop  offset="1" style="stop-color:#4F52FF"/>
				</linearGradient>
				
					<circle style="fill:url(#SVGID_00000016072666324177316260000008008028886647812776_);" cx="2033.768" cy="352.647" r="54.803"/>
				<path style="fill:#BDD0FB;" d="M2057.27,337.386c-5.946-5.845-15.22-4.086-21.605,1.274c-0.915,0.768-2.241,0.777-3.169,0.025
					c-6.47-5.247-15.734-6.845-21.578-0.899c-6.345,6.456-6.256,16.832,0.2,23.177l21.599,21.231
					c0.981,0.964,2.559,0.951,3.523-0.03l21.231-21.599C2063.814,354.108,2063.725,343.731,2057.27,337.386z"/>
			</g>
			<g>
				
					<linearGradient id="SVGID_00000052822001902406093280000012822271054488672433_" gradientUnits="userSpaceOnUse" x1="2124.6768" y1="799.7507" x2="514.9337" y2="383.059">
					<stop  offset="0" style="stop-color:#4042E2"/>
					<stop  offset="1" style="stop-color:#4F52FF"/>
				</linearGradient>
				<circle style="fill:url(#SVGID_00000052822001902406093280000012822271054488672433_);" cx="468.935" cy="371.152" r="41.993"/>
				<path style="fill:#BDD0FB;" d="M486.943,359.459c-4.556-4.479-11.663-3.131-16.555,0.976c-0.701,0.589-1.717,0.596-2.428,0.019
					c-4.958-4.021-12.056-5.245-16.535-0.689c-4.862,4.947-4.793,12.897,0.153,17.759l16.551,16.268
					c0.752,0.739,1.961,0.728,2.7-0.023l16.268-16.551C491.958,372.272,491.89,364.321,486.943,359.459z"/>
			</g>
			<g>
				
					<linearGradient id="SVGID_00000182493890215933480910000013534990792244455833_" gradientUnits="userSpaceOnUse" x1="2249.1702" y1="377.5519" x2="639.4271" y2="-39.1398">
					<stop  offset="0" style="stop-color:#4042E2"/>
					<stop  offset="1" style="stop-color:#4F52FF"/>
				</linearGradient>
				
					<circle style="fill:url(#SVGID_00000182493890215933480910000013534990792244455833_);" cx="1841.418" cy="272.003" r="41.993"/>
				<path style="fill:#BDD0FB;" d="M1859.426,260.31c-4.556-4.479-11.663-3.131-16.555,0.976c-0.701,0.589-1.718,0.595-2.429,0.019
					c-4.958-4.021-12.056-5.245-16.535-0.689c-4.862,4.947-4.793,12.897,0.153,17.759l16.551,16.268
					c0.752,0.739,1.961,0.728,2.7-0.023l16.268-16.551C1864.441,273.122,1864.372,265.172,1859.426,260.31z"/>
			</g>
			<g>
				
					<linearGradient id="SVGID_00000120541537205354836880000004302514695598994101_" gradientUnits="userSpaceOnUse" x1="2293.1628" y1="323.3718" x2="683.4223" y2="-93.3192">
					<stop  offset="0" style="stop-color:#4042E2"/>
					<stop  offset="1" style="stop-color:#4F52FF"/>
				</linearGradient>
				
					<circle style="fill:url(#SVGID_00000120541537205354836880000004302514695598994101_);" cx="1697.096" cy="169.076" r="67.552"/>
				<g>
					<path style="fill:#BDD0FB;" d="M1716.122,147.02c0,10.452-8.473,21.737-18.926,21.737c-10.452,0-18.926-11.284-18.926-21.737
						s8.473-17.868,18.926-17.868C1707.649,129.153,1716.122,136.568,1716.122,147.02z"/>
					<path style="fill:#BDD0FB;" d="M1673.709,209h46.201c4.863,0,9.169-3.143,10.651-7.775l2.486-7.77
						c1.82-5.689-1.139-11.849-6.749-13.9c-18.802-6.875-38.244-5.993-58.161,0.634c-5.579,1.856-8.676,7.824-7.136,13.5
						l1.914,7.057C1664.238,205.617,1668.661,209,1673.709,209z"/>
				</g>
			</g>
			<g>
				
					<linearGradient id="SVGID_00000127039392364398205200000002925272310985203617_" gradientUnits="userSpaceOnUse" x1="2057.9006" y1="483.2582" x2="448.1611" y2="66.5674">
					<stop  offset="0" style="stop-color:#4042E2"/>
					<stop  offset="1" style="stop-color:#4F52FF"/>
				</linearGradient>
				
					<circle style="fill:url(#SVGID_00000127039392364398205200000002925272310985203617_);" cx="1853.605" cy="430.375" r="55.202"/>
				<g>
					<path style="fill:#BDD0FB;" d="M1869.153,412.351c0,8.542-6.924,17.763-15.466,17.763s-15.466-9.221-15.466-17.763
						s6.924-14.601,15.466-14.601S1869.153,403.81,1869.153,412.351z"/>
					<path style="fill:#BDD0FB;" d="M1834.493,463h37.755c3.974,0,7.493-2.569,8.704-6.354l2.032-6.35
						c1.487-4.649-0.931-9.683-5.516-11.359c-15.365-5.618-31.253-4.897-47.528,0.518c-4.559,1.517-7.09,6.394-5.831,11.032
						l1.564,5.767C1826.754,460.236,1830.368,463,1834.493,463z"/>
				</g>
			</g>
			<g>
				
					<linearGradient id="SVGID_00000067931339503628362990000008718419976165902510_" gradientUnits="userSpaceOnUse" x1="2040.5902" y1="637.5862" x2="430.8439" y2="220.8937">
					<stop  offset="0" style="stop-color:#4042E2"/>
					<stop  offset="1" style="stop-color:#4F52FF"/>
				</linearGradient>
				<circle style="fill:url(#SVGID_00000067931339503628362990000008718419976165902510_);" cx="636.196" cy="274.051" r="57.443"/>
				<g>
					<path style="fill:#BDD0FB;" d="M652.376,255.295c0,8.888-7.206,18.484-16.094,18.484c-8.888,0-16.094-9.596-16.094-18.484
						c0-8.888,7.206-15.194,16.094-15.194C645.17,240.101,652.376,246.407,652.376,255.295z"/>
					<path style="fill:#BDD0FB;" d="M616.309,308h39.288c4.136,0,7.797-2.673,9.057-6.612l2.114-6.608
						c1.548-4.838-0.969-10.076-5.739-11.82c-15.989-5.846-32.521-5.096-49.458,0.539c-4.745,1.579-7.377,6.654-6.068,11.48
						l1.628,6.001C608.255,305.124,612.016,308,616.309,308z"/>
				</g>
			</g>
			<g>
				
					<linearGradient id="SVGID_00000015342156624897549500000018280673432224524422_" gradientUnits="userSpaceOnUse" x1="2013.5294" y1="779.9604" x2="403.7892" y2="363.2694">
					<stop  offset="0" style="stop-color:#4042E2"/>
					<stop  offset="1" style="stop-color:#4F52FF"/>
				</linearGradient>
				<circle style="fill:url(#SVGID_00000015342156624897549500000018280673432224524422_);" cx="657.449" cy="428.931" r="37.341"/>
				<g>
					<path style="fill:#BDD0FB;" d="M667.967,416.739c0,5.778-4.684,12.016-10.462,12.016s-10.462-6.238-10.462-12.016
						s4.684-9.877,10.462-9.877S667.967,410.961,667.967,416.739z"/>
					<path style="fill:#BDD0FB;" d="M644.522,451h25.539c2.688,0,5.069-1.737,5.888-4.298l1.374-4.295
						c1.006-3.145-0.63-6.55-3.731-7.684c-10.394-3.8-21.141-3.313-32.15,0.351c-3.084,1.026-4.796,4.325-3.945,7.462l1.058,3.901
						C639.286,449.13,641.731,451,644.522,451z"/>
				</g>
			</g>
			<g>
				
					<linearGradient id="SVGID_00000134966178721983465680000013602469421674695858_" gradientUnits="userSpaceOnUse" x1="2270.1589" y1="663.5002" x2="660.4117" y2="246.8074">
					<stop  offset="0" style="stop-color:#4042E2"/>
					<stop  offset="1" style="stop-color:#4F52FF"/>
				</linearGradient>
				<circle style="fill:url(#SVGID_00000134966178721983465680000013602469421674695858_);" cx="1279.66" cy="407.104" r="37.049"/>
				<g>
					<path style="fill:#BDD0FB;" d="M1290.095,395.007c0,5.733-4.647,11.922-10.38,11.922c-5.733,0-10.38-6.189-10.38-11.922
						c0-5.733,4.647-9.8,10.38-9.8C1285.447,385.207,1290.095,389.274,1290.095,395.007z"/>
					<path style="fill:#BDD0FB;" d="M1266.833,429h25.339c2.667,0,5.029-1.724,5.842-4.264l1.364-4.262
						c0.998-3.12-0.625-6.499-3.702-7.624c-10.312-3.771-20.976-3.287-31.899,0.348c-3.06,1.018-4.758,4.291-3.914,7.404l1.05,3.87
						C1261.638,427.145,1264.064,429,1266.833,429z"/>
				</g>
			</g>
		</g>
		<g>
			<g>
				<g>
					<path style="fill:#91B3FA;" d="M1979.607,1136.219c-7.219-15.041-12.384-30.786-13.588-47.93
						c-3.035-43.196,22.075-82.975,40.522-120.166c16.955-34.182,29.556-85.115-27.653-80.583
						c-45.577,3.611-99.16,49.032-105.273,96.396c-7.235,56.056,20.055,126.746-12.3,177.666
						c-45.264,71.234-77.913,54.91-77.913,175.118c0,51.364,28.451,79.697,61.039,95.302
						c51.435,24.632,112.767,14.679,153.748-24.981c36.204-35.037,57.731-85.406,50.451-135.974
						C2041.286,1219.995,2001.229,1181.264,1979.607,1136.219z"/>
					
						<linearGradient id="SVGID_00000113346513960856640360000014403369827352459429_" gradientUnits="userSpaceOnUse" x1="1892.7576" y1="1215.6154" x2="1985.9082" y2="1215.6154">
						<stop  offset="0" style="stop-color:#4042E2"/>
						<stop  offset="1" style="stop-color:#4F52FF"/>
					</linearGradient>
					<path style="fill:url(#SVGID_00000113346513960856640360000014403369827352459429_);" d="M1941.366,1523.648
						c-1.137,0-2.172-0.769-2.461-1.922c-28.371-113.244-43.814-215.908-45.901-305.138c-1.673-71.492,5.177-134.593,20.356-187.552
						c13.547-47.259,31.371-77.559,43.938-94.657c13.732-18.682,24.185-26.04,24.624-26.344c1.154-0.797,2.734-0.513,3.533,0.639
						c0.798,1.15,0.514,2.73-0.636,3.53l0,0c-0.102,0.072-10.415,7.375-23.731,25.593c-12.304,16.833-29.759,46.685-43.039,93.311
						c-14.946,52.475-21.661,115.04-19.956,185.959c2.133,88.713,17.52,190.799,45.736,303.425c0.34,1.36-0.486,2.739-1.845,3.079
						C1941.777,1523.623,1941.57,1523.648,1941.366,1523.648z"/>
				</g>
			</g>
			<g>
				<path style="fill:#BDD0FB;" d="M2141.233,1337.469c5.832-38.42-8.132-82.527-15.101-123.156
					c-3.685-21.481-5.389-42.799-1.939-64.441c3.43-21.517,13.54-44.789,4.219-66.226c-18.784-43.189-63.438-23.534-89.016,8.979
					c-29.682,37.73-37.796,99.383-49.07,146.858c-6.796,28.62-17.034,57.976-20.619,87.141
					c-5.939,48.314,4.985,81.857,28.097,104.51c22.167,21.727,55.928,26.232,83.046,11.13
					C2105.347,1428.62,2131.825,1399.448,2141.233,1337.469z"/>
				
					<linearGradient id="SVGID_00000133495798065066886260000001959846549774112446_" gradientUnits="userSpaceOnUse" x1="2352.2856" y1="947.2632" x2="2423.9934" y2="947.2632" gradientTransform="matrix(0.9734 0.2289 -0.2289 0.9734 -53.2699 -165.6312)">
					<stop  offset="0" style="stop-color:#4042E2"/>
					<stop  offset="1" style="stop-color:#4F52FF"/>
				</linearGradient>
				<path style="fill:url(#SVGID_00000133495798065066886260000001959846549774112446_);" d="M2039.077,1516.791
					c-1.216,0-2.291-0.878-2.5-2.117c-0.099-0.583-9.821-59.253-10.075-140.192c-0.235-74.739,7.781-184.344,47.303-282.067
					c0.527-1.301,2.005-1.924,3.305-1.402c1.3,0.526,1.927,2.005,1.402,3.306c-21.644,53.516-47.356,145.561-46.933,280.147
					c0.253,80.527,9.906,138.787,10.004,139.365c0.233,1.383-0.699,2.692-2.082,2.925
					C2039.359,1516.779,2039.217,1516.791,2039.077,1516.791z"/>
			</g>
		</g>
		<g>
			<g>
				<path style="fill:#91B3FA;" d="M465.123,798.726c-11.533,5.576-22.65,13.923-26.048,22.475
					c-15.328,38.578,25.024,83.42,41.454,114.624c28.225,53.605,44.467,114.071,39.913,174.89
					c-4.935,65.9-4.375,130.02,13.292,194.374c9.101,33.153,24.119,67.572,49.959,91.393c48.831,45.002,149.315,1.96,160.9-58.081
					c9.24-47.884-4.401-96.59-22.878-140.475c-31.082-73.825-73.825-142.005-105.368-215.6
					c-24.121-56.277-34.996-173.696-107.729-189.463C495.319,789.979,477.359,792.81,465.123,798.726z"/>
				
					<linearGradient id="SVGID_00000120552601121645032020000014016868599027105174_" gradientUnits="userSpaceOnUse" x1="319.2173" y1="1272.4822" x2="410.618" y2="1272.4822" gradientTransform="matrix(0.9779 -0.2091 0.2091 0.9779 -28.1519 -10.634)">
					<stop  offset="0" style="stop-color:#4042E2"/>
					<stop  offset="1" style="stop-color:#4F52FF"/>
				</linearGradient>
				<path style="fill:url(#SVGID_00000120552601121645032020000014016868599027105174_);" d="M671.564,1505.386
					c-0.028-0.001-0.057-0.002-0.085-0.005c-1.314-0.101-2.298-1.247-2.198-2.561c6.902-90.371,1.061-182.415-17.361-273.571
					c-14.739-72.937-37.52-145.474-67.709-215.596C532.82,894.285,477.075,822.471,476.517,821.759
					c-0.812-1.037-0.63-2.537,0.408-3.349c1.037-0.814,2.538-0.63,3.349,0.407c0.561,0.716,56.688,73.019,108.32,192.949
					c30.319,70.424,53.199,143.277,68.004,216.536c18.509,91.589,24.377,184.072,17.441,274.881
					C673.942,1504.469,672.843,1505.438,671.564,1505.386z"/>
			</g>
			<g>
				<path style="fill:#BDD0FB;" d="M596.74,1276.113c-14.031-42.729-51.479-81.001-79.886-119.33
					c-15.019-20.266-27.908-41.396-35.641-65.552c-7.689-24.017-9.393-53.332-30.213-70.61
					c-41.947-34.806-77.812,8.805-87.261,55.741c-10.965,54.467,12.837,122.387,25.974,177.311
					c7.92,33.111,12.668,68.778,24.189,100.775c19.086,53.006,47.879,81.952,83.577,93.286c34.24,10.871,71.465-2.099,91.592-31.854
					C607.254,1389.001,619.375,1345.045,596.74,1276.113z"/>
				
					<linearGradient id="SVGID_00000057841900605881173390000010890368618023056517_" gradientUnits="userSpaceOnUse" x1="53.3562" y1="1378.9996" x2="136.8646" y2="1378.9996" gradientTransform="matrix(0.9721 -0.2347 0.2347 0.9721 73.111 -32.346)">
					<stop  offset="0" style="stop-color:#4042E2"/>
					<stop  offset="1" style="stop-color:#4F52FF"/>
				</linearGradient>
				<path style="fill:url(#SVGID_00000057841900605881173390000010890368618023056517_);" d="M583.506,1515.234
					c-0.979,0-1.945-0.448-2.569-1.297c-0.406-0.552-41.087-56.098-83.609-139.588c-39.267-77.1-88.214-194.532-98.404-316.144
					c-0.147-1.755,1.156-3.297,2.91-3.443c1.763-0.172,3.296,1.156,3.443,2.91c19.341,230.809,179.183,450.294,180.795,452.483
					c1.044,1.418,0.741,3.414-0.678,4.458C584.825,1515.032,584.163,1515.234,583.506,1515.234z"/>
			</g>
		</g>
		<g>
			<g>
				<g>
					
						<linearGradient id="SVGID_00000141426502403812794790000000092575735321781390_" gradientUnits="userSpaceOnUse" x1="1189.8009" y1="1480.7" x2="1330.6355" y2="391.5868">
						<stop  offset="0" style="stop-color:#E1473D"/>
						<stop  offset="1" style="stop-color:#E9605A"/>
					</linearGradient>
					<path style="fill:url(#SVGID_00000141426502403812794790000000092575735321781390_);" d="M1681.601,1096.323
						c0.273,128.09-35.391,227.514-107.762,297.96c-72.396,70.447-176.483,105.909-313.055,106.207
						c-133.455,0.286-236.089-33.611-307.864-101.735c-71.775-68.125-107.849-166.551-108.122-294.642l-0.869-408.936h266.066
						l0.832,387.623c0.149,69.193,13.064,119.54,39.017,150.722c25.953,31.193,64.014,46.812,114.456,46.7
						c54.005-0.112,93.06-15.667,117.324-46.749c24.252-31.057,36.186-82.159,36.024-152.693l-0.82-385.603h263.917
						L1681.601,1096.323z"/>
					
						<linearGradient id="SVGID_00000146501738799450652860000001849134238188350369_" gradientUnits="userSpaceOnUse" x1="1205.4697" y1="1322.4081" x2="1383.8585" y2="54.9036">
						<stop  offset="0" style="stop-color:#FE7062"/>
						<stop  offset="1" style="stop-color:#FF928E"/>
					</linearGradient>
					<path style="fill:url(#SVGID_00000146501738799450652860000001849134238188350369_);" d="M1681.638,1092.715
						c0.273,122.515-35.416,217.651-107.8,285.03c-72.384,67.392-176.483,101.331-313.055,101.629
						c-133.455,0.286-236.077-32.118-307.852-97.275c-71.763-65.169-107.837-159.341-108.098-281.856l-0.869-403.862h266.078
						l0.819,383.456c0.137,66.175,13.051,114.359,39.005,144.174c25.941,29.84,64.014,44.78,114.443,44.668
						c54.005-0.112,93.072-14.994,117.337-44.722c24.252-29.704,36.186-78.625,36.049-146.079l-0.82-381.497h263.917
						L1681.638,1092.715z"/>
					<g>
						<path style="fill:#FFFFFF;" d="M1101.948,508.717l-250.612,0.535c-4.312,0.009-7.802,3.056-7.793,7.368l0.401,187.907
							l266.066-0.568l-0.401-187.907C1109.6,511.74,1106.26,508.708,1101.948,508.717z"/>
						<path style="fill:#FFFFFF;" d="M1673.075,507.497l-249.125,0.532c-4.312,0.009-7.517,3.055-7.508,7.367l0.401,187.907
							l263.92-0.564l-0.401-187.907C1680.354,510.52,1677.388,507.488,1673.075,507.497z"/>
					</g>
				</g>
				<g>
					<path style="fill:#FFFFFF;" d="M881.311,1120.763c-2.054,0.004-4.295-1.656-4.299-3.709l-0.804-376.29
						c-0.004-2.054,2.23-3.723,4.283-3.727c2.054-0.004,4.295,1.656,4.299,3.709l0.804,376.29
						C885.599,1119.089,883.365,1120.758,881.311,1120.763z"/>
				</g>
				<g>
					<path style="fill:#FFFFFF;" d="M1508.777,1400.617c-1.458,0.003-2.843-0.856-3.44-2.286c-0.792-1.895,0.102-4.073,1.997-4.864
						c85.224-35.615,120.307-131.274,134.731-205.252c15.724-80.646,10.998-153.65,10.948-154.378
						c-0.139-2.049,1.408-3.823,3.457-3.962c2.056-0.136,3.823,1.409,3.962,3.457c0.05,0.738,4.84,74.715-11.069,156.306
						c-9.369,48.052-23.979,89.354-43.425,122.758c-24.461,42.022-56.672,71.606-95.738,87.931
						C1509.735,1400.523,1509.252,1400.616,1508.777,1400.617z"/>
				</g>
			</g>
			<g>
				<polygon style="fill:#91B3FA;" points="990.158,245.329 936.999,349.38 977.41,349.38 963.578,427.657 1046.169,323.868 
					991.584,319.365 				"/>
				<polygon style="fill:#91B3FA;" points="1146.831,305.927 1074.729,367.65 1105.13,380.141 1070.478,434.878 1164.667,382.388 
					1125.007,362.097 				"/>
				<polygon style="fill:#91B3FA;" points="797.033,316.031 815.364,409.158 841.18,388.817 871.828,445.893 872.392,338.067 
					835.232,362.638 				"/>
			</g>
			<g>
				<polygon style="fill:#91B3FA;" points="1561.774,245.329 1508.616,349.38 1549.027,349.38 1535.195,427.657 1617.786,323.868 
					1563.201,319.365 				"/>
				<polygon style="fill:#91B3FA;" points="1710.447,306.927 1638.345,368.65 1668.747,381.141 1634.095,435.878 1728.284,383.388 
					1688.624,363.097 				"/>
				<polygon style="fill:#91B3FA;" points="1368.65,316.031 1386.98,409.158 1412.797,388.817 1443.445,445.893 1444.008,338.067 
					1406.848,362.638 				"/>
			</g>
		</g>
		<g>
			<g>
				
					<linearGradient id="SVGID_00000140732375798945205680000012971539322766056588_" gradientUnits="userSpaceOnUse" x1="614.5777" y1="750.2449" x2="572.3275" y2="839.4396">
					<stop  offset="0" style="stop-color:#FE7062"/>
					<stop  offset="1" style="stop-color:#FF928E"/>
				</linearGradient>
				<path style="fill:url(#SVGID_00000140732375798945205680000012971539322766056588_);" d="M744.28,609.374H570.358
					c-15.644,0-28.325,12.682-28.325,28.326v44.629c0,15.643,12.682,28.326,28.325,28.326h53.715c1.345,0,2.564,0.788,3.117,2.014
					l22.256,49.408c0.48,1.066,1.525,1.766,2.693,1.807c1.168,0.04,2.258-0.587,2.81-1.618l26.686-49.807
					c0.595-1.11,1.753-1.803,3.013-1.803h59.632c15.644,0,28.325-12.682,28.325-28.326V637.7
					C772.605,622.056,759.924,609.374,744.28,609.374z"/>
				<g>
					<path style="fill:#FFFFFF;" d="M639.981,641.099h-0.168l-10.053,5.068l-1.774-7.856l13.348-6.589h8.699v54.906h-10.053V641.099
						z"/>
					<path style="fill:#FFFFFF;" d="M668.945,686.629v-6.335l6.505-5.997c12.925-11.995,19.007-18.584,19.091-25.848
						c0-4.899-2.618-9.208-9.798-9.208c-4.815,0-8.954,2.449-11.742,4.561l-3.041-7.349c3.971-3.21,9.969-5.66,16.894-5.66
						c12.163,0,18.077,7.687,18.077,16.641c0,9.63-6.925,17.4-16.471,26.27l-4.815,4.139v0.168h22.553v8.617H668.945z"/>
					<path style="fill:#FFFFFF;" d="M749.099,640.339h-21.117l-1.604,10.981c1.267-0.168,2.363-0.253,3.969-0.253
						c4.815,0,9.63,1.097,13.346,3.547c4.139,2.619,7.18,7.266,7.18,13.939c0,10.474-8.699,19.006-22.216,19.006
						c-6.334,0-11.656-1.604-14.529-3.21l2.113-7.856c2.366,1.267,7.094,2.872,12.079,2.872c6.082,0,11.911-3.464,11.911-10.053
						c0-6.25-4.646-10.389-15.627-10.389c-3.041,0-5.322,0.169-7.519,0.506l3.632-27.706h28.382V640.339z"/>
				</g>
				<g>
					<path style="fill:#FFFFFF;" d="M600.174,642.354c0,7.229-5.86,15.032-13.089,15.032c-7.228,0-13.089-7.804-13.089-15.032
						c0-7.228,5.86-12.357,13.089-12.357C594.315,629.998,600.174,635.126,600.174,642.354z"/>
					<path style="fill:#FFFFFF;" d="M570.843,685.218h31.951c3.363,0,6.341-2.174,7.366-5.377l1.719-5.374
						c1.259-3.935-0.788-8.195-4.668-9.613c-13.003-4.754-26.449-4.144-40.222,0.439c-3.859,1.284-6,5.411-4.935,9.336l1.324,4.88
						C564.293,682.878,567.352,685.218,570.843,685.218z"/>
				</g>
			</g>
			
				<linearGradient id="SVGID_00000112594916549313307980000003379386660108464798_" gradientUnits="userSpaceOnUse" x1="627.5181" y1="585.7008" x2="816.947" y2="1378.207">
				<stop  offset="0" style="stop-color:#4042E2"/>
				<stop  offset="1" style="stop-color:#4F52FF"/>
			</linearGradient>
			<path style="fill:url(#SVGID_00000112594916549313307980000003379386660108464798_);" d="M746.749,872.496
				c0,0-32.595,30.915-43.369,85.865c-10.775,54.95-36.364-77.68-36.364-77.68h-25.859c0,0-9.754,136.664,63.25,147.529
				c13.917,2.071,27.881-3.436,36.586-14.49c13.33-16.928,34.13-47.044,39.154-75.752
				C775.838,892.715,746.749,872.496,746.749,872.496z"/>
			
				<linearGradient id="SVGID_00000094617871104039442190000010090538637161798819_" gradientUnits="userSpaceOnUse" x1="923.1995" y1="1667.2856" x2="926.3953" y2="1571.4146" gradientTransform="matrix(1 0 0 1 -43.1099 0)">
				<stop  offset="0" style="stop-color:#4042E2"/>
				<stop  offset="1" style="stop-color:#4F52FF"/>
			</linearGradient>
			<path style="fill:url(#SVGID_00000094617871104039442190000010090538637161798819_);" d="M912.366,1505.31
				c0.006-0.404-0.021-0.814-0.125-1.227c-6.115-24.244-31.119-36.671-31.119-36.671l-12.027,0.943
				c-6.915,21.369-11.374,31.8-10.264,37.638c0.031,0.163,0.08,0.319,0.124,0.478
				C868.876,1507.357,889.297,1507.936,912.366,1505.31z"/>
			
				<linearGradient id="SVGID_00000114032498430105417120000001870194306691582888_" gradientUnits="userSpaceOnUse" x1="1037.1063" y1="1421.925" x2="839.5793" y2="1577.0238" gradientTransform="matrix(1 0 0 1 -43.1099 0)">
				<stop  offset="0" style="stop-color:#E1473D"/>
				<stop  offset="1" style="stop-color:#E9605A"/>
			</linearGradient>
			<path style="fill:url(#SVGID_00000114032498430105417120000001870194306691582888_);" d="M858.955,1506.47
				c0.536,1.949,1.975,3.467,3.817,3.854c14.113,2.968,36.545,0.579,45.963-0.652c2.078-0.271,3.597-2.193,3.631-4.362
				C889.297,1507.936,868.876,1507.357,858.955,1506.47z"/>
			
				<linearGradient id="SVGID_00000089554306953486372120000015873072672911601835_" gradientUnits="userSpaceOnUse" x1="2518.1023" y1="1424.2964" x2="2507.3809" y2="1517.8674" gradientTransform="matrix(-1 0 0 1 3394.387 0)">
				<stop  offset="0" style="stop-color:#FF928E"/>
				<stop  offset="1" style="stop-color:#FEB3B1"/>
			</linearGradient>
			<path style="fill:url(#SVGID_00000089554306953486372120000015873072672911601835_);" d="M891.026,1448.696l-5.266,25.35
				c-0.386,1.858-1.813,3.249-3.542,3.411c-2.116,0.198-5.129,0.315-8.158-0.13c-2.717-0.399-4.609-3.16-4.127-6.122l3.66-22.509
				H891.026z"/>
			
				<linearGradient id="SVGID_00000139293611131292270990000010854077361021863355_" gradientUnits="userSpaceOnUse" x1="2700.1255" y1="1467.9553" x2="2509.1111" y2="1617.9403" gradientTransform="matrix(-1 0 0 1 3394.387 0)">
				<stop  offset="0" style="stop-color:#E1473D"/>
				<stop  offset="1" style="stop-color:#E9605A"/>
			</linearGradient>
			<path style="fill:url(#SVGID_00000139293611131292270990000010854077361021863355_);" d="M756.762,1506.26
				c12.845-0.36,19.489-1.873,22.924-3.276c0.008,1.277,0.001,2.577-0.041,3.924c-0.045,1.438-1.11,2.587-2.421,2.579l-70.528-0.455
				c-2.251-0.015-3.567-2.625-2.591-4.689C713.354,1505.107,736.906,1506.816,756.762,1506.26z"/>
			
				<linearGradient id="SVGID_00000115481027838271376910000002489913937230551431_" gradientUnits="userSpaceOnUse" x1="2645.0405" y1="1726.5731" x2="2648.2363" y2="1630.7008" gradientTransform="matrix(-1 0 0 1 3394.387 0)">
				<stop  offset="0" style="stop-color:#4042E2"/>
				<stop  offset="1" style="stop-color:#4F52FF"/>
			</linearGradient>
			<path style="fill:url(#SVGID_00000115481027838271376910000002489913937230551431_);" d="M704.106,1504.343
				c0.085-0.18,0.158-0.363,0.279-0.532c6.229-8.703,22.093-26.034,53.44-33.55l15.038-0.474c0,0,6.696,11.639,6.823,33.198
				c-3.435,1.403-10.079,2.917-22.924,3.276C736.906,1506.816,713.354,1505.107,704.106,1504.343z"/>
			
				<linearGradient id="SVGID_00000076579591948666415630000005581522403064482492_" gradientUnits="userSpaceOnUse" x1="2631.0471" y1="1436.2676" x2="2621.0178" y2="1523.7969" gradientTransform="matrix(-1 0 0 1 3394.387 0)">
				<stop  offset="0" style="stop-color:#FF928E"/>
				<stop  offset="1" style="stop-color:#FEB3B1"/>
			</linearGradient>
			<path style="fill:url(#SVGID_00000076579591948666415630000005581522403064482492_);" d="M775.653,1446.996
				c-0.167,1.12-2.229,18.157-3.026,24.763c-0.19,1.57-1.327,2.784-2.76,2.955c-2.56,0.306-6.704,0.584-10.33-0.159
				c-1.956-0.401-3.371-2.28-3.371-4.464v-26.743L775.653,1446.996z"/>
			
				<linearGradient id="SVGID_00000077288991789633133220000002443894534320534666_" gradientUnits="userSpaceOnUse" x1="757.2969" y1="1433.4691" x2="769.3286" y2="1056.485" gradientTransform="matrix(-1 0 0 1 1582.5518 0)">
				<stop  offset="0" style="stop-color:#09005D"/>
				<stop  offset="1" style="stop-color:#1A0F91"/>
			</linearGradient>
			<path style="fill:url(#SVGID_00000077288991789633133220000002443894534320534666_);" d="M880.977,1115.81
				c0,0,24.064,213.903,10.695,347.592c0,0-16.042,0-24.064-2.674c0,0-25.006-209.141-33.096-268.988
				c-0.305-2.256-3.525-2.358-3.968-0.125c-9.981,50.349-49.183,247.794-53.844,266.44c0,0-13.369,5.348-24.065,0
				c0,0,21.39-286.094,37.433-336.896L880.977,1115.81z"/>
			
				<linearGradient id="SVGID_00000155140560732227058490000005031614999148382602_" gradientUnits="userSpaceOnUse" x1="754.0902" y1="555.5201" x2="943.4955" y2="1347.9282">
				<stop  offset="0" style="stop-color:#4042E2"/>
				<stop  offset="1" style="stop-color:#4F52FF"/>
			</linearGradient>
			<path style="fill:url(#SVGID_00000155140560732227058490000005031614999148382602_);" d="M929.105,867.149
				c0,0-101.604-16.043-181.817,5.347l5.348,82.888c0,0,21.39,114.972,37.433,165.774c0,0,61.497,10.695,90.909-5.348
				c0,0,24.064-144.384,37.433-165.775C918.409,950.036,931.779,893.887,929.105,867.149z"/>
			
				<linearGradient id="SVGID_00000029754164322532762090000005652428923401676452_" gradientUnits="userSpaceOnUse" x1="837.5903" y1="766.075" x2="845.8055" y2="878.7415">
				<stop  offset="0" style="stop-color:#FF928E"/>
				<stop  offset="1" style="stop-color:#FEB3B1"/>
			</linearGradient>
			<path style="fill:url(#SVGID_00000029754164322532762090000005652428923401676452_);" d="M857.805,779.888l10.838,82.65
				c0,0-28.278,12.99-48.079-0.557l4.263-48.307L857.805,779.888z"/>
			
				<linearGradient id="SVGID_00000158746675729863925490000001201209218473166465_" gradientUnits="userSpaceOnUse" x1="825.0923" y1="538.5491" x2="1014.498" y2="1330.9585">
				<stop  offset="0" style="stop-color:#4042E2"/>
				<stop  offset="1" style="stop-color:#4F52FF"/>
			</linearGradient>
			<path style="fill:url(#SVGID_00000158746675729863925490000001201209218473166465_);" d="M929.105,867.149
				c0,0,157.753,171.122-28.075,236.63v-13.369c0,0,69.519-58.823,16.043-139.036C917.073,951.373,923.757,875.17,929.105,867.149z"
				/>
			
				<linearGradient id="SVGID_00000097492853919893248720000011977636685554822054_" gradientUnits="userSpaceOnUse" x1="725.6098" y1="1076.4625" x2="640.0488" y2="1149.5457" gradientTransform="matrix(-1 0 0 1 1582.5518 0)">
				<stop  offset="0" style="stop-color:#FF928E"/>
				<stop  offset="1" style="stop-color:#FEB3B1"/>
			</linearGradient>
			<path style="fill:url(#SVGID_00000097492853919893248720000011977636685554822054_);" d="M899.693,1091.747
				c0,0-24.064-16.043-34.759-10.695c-10.695,5.348-10.695,13.369-10.695,13.369s5.348,10.695,13.369,8.021
				c8.021-2.673,26.738,2.674,34.759,0C902.367,1102.441,905.041,1091.747,899.693,1091.747z"/>
			<g>
				
					<linearGradient id="SVGID_00000176753475822266599070000007589457504683365031_" gradientUnits="userSpaceOnUse" x1="-8248.2832" y1="414.9891" x2="-8279.6953" y2="448.1898" gradientTransform="matrix(0.9577 0.2876 -0.3672 1.2229 8733.1621 2685.145)">
					<stop  offset="0" style="stop-color:#09005D"/>
					<stop  offset="1" style="stop-color:#1A0F91"/>
				</linearGradient>
				<path style="fill:url(#SVGID_00000176753475822266599070000007589457504683365031_);" d="M639.563,794.247l33.946,11.436
					c4.11,1.234,6.943,5.386,7.271,10.659l-1.763,56.648c0.551,8.863-6.764,16.676-13.673,14.601l-27.215-9.273
					c-2.648-0.795-4.408-3.577-4.437-7.014l-0.599-70.531C633.058,796.699,636.423,793.305,639.563,794.247z"/>
			</g>
			
				<linearGradient id="SVGID_00000015350800446562715370000003152433804454697628_" gradientUnits="userSpaceOnUse" x1="634.8482" y1="814.2507" x2="638.3827" y2="871.6853">
				<stop  offset="0" style="stop-color:#FF928E"/>
				<stop  offset="1" style="stop-color:#FEB3B1"/>
			</linearGradient>
			<path style="fill:url(#SVGID_00000015350800446562715370000003152433804454697628_);" d="M633.092,867.149
				c0,0-10.624-34.038-5.223-39.772c5.401-5.734,16.162-21.549,16.88-8.62C645.467,831.687,651.963,887.527,633.092,867.149z"/>
			<g>
				
					<linearGradient id="SVGID_00000018220647382008251080000014774211537013097895_" gradientUnits="userSpaceOnUse" x1="880.5851" y1="752.8458" x2="770.265" y2="809.1795">
					<stop  offset="0" style="stop-color:#FF928E"/>
					<stop  offset="1" style="stop-color:#FEB3B1"/>
				</linearGradient>
				<path style="fill:url(#SVGID_00000018220647382008251080000014774211537013097895_);" d="M789.024,757.651
					c-0.168,1.044,12.663,69.763,12.663,69.763l39.082-8.16l-2.484-66.939C838.284,752.316,791.844,740.177,789.024,757.651z"/>
				
					<linearGradient id="SVGID_00000127739097798096270630000010370905352482380974_" gradientUnits="userSpaceOnUse" x1="-3350.4067" y1="-3241.104" x2="-3254.606" y2="-3241.104" gradientTransform="matrix(-0.9872 -0.1593 -0.1593 0.9872 -2962.9348 3461.4263)">
					<stop  offset="0" style="stop-color:#09005D"/>
					<stop  offset="1" style="stop-color:#1A0F91"/>
				</linearGradient>
				<path style="fill:url(#SVGID_00000127739097798096270630000010370905352482380974_);" d="M826.595,763.212
					c1.52,0.924,2.524,2.488,2.729,4.256l4.009,34.627c0.061,0.526,0.054,1.048-0.033,1.57c-0.481,2.876-2.747,11.91-12.02,9.115
					c-7.903-2.382-15.199-4.462-20.567-3.506c-3.135,0.558-5.176,3.607-4.58,6.735c1.228,6.443,3.969,19.394,8.019,30.558
					c1.015,2.798,4.033,4.32,6.901,3.524c7.569-2.1,22.227-6.644,33.423-13.031c1.839-1.049,2.946-3.017,2.893-5.133
					c-0.233-9.314-0.781-35.425,0.199-42.819c0.91-6.87,9.217-10.931,13.168-12.49c1.5-0.592,2.677-1.768,3.265-3.27
					c1.763-4.503,3.705-13.835-7.95-18.143c-2.898-1.071-4.357-4.343-3.346-7.263c1.811-5.231,2.308-12.817-7.12-17.233
					c-9.544-4.47-16.908,0.133-21.136,4.292c-1.87,1.841-4.799,2.37-7.071,1.056c-1.01-0.585-2.268-0.778-3.767-0.044
					c-2.828,1.385-6.153,0.383-7.557-2.435c-2.406-4.832-7.222-9.811-16.762-8.341c-17.497,2.696-19.796,21.997-15.383,33.403
					c4.413,11.407,23.217,7.405,32.709,1.85C813.59,756.411,822.406,760.666,826.595,763.212z"/>
				
					<linearGradient id="SVGID_00000052800225511123180160000004951414260324505263_" gradientUnits="userSpaceOnUse" x1="-3404.8093" y1="-3183.7961" x2="-3341.8237" y2="-3248.4177" gradientTransform="matrix(-0.9872 -0.1593 -0.1593 0.9872 -2962.9348 3461.4263)">
					<stop  offset="0" style="stop-color:#FF928E"/>
					<stop  offset="1" style="stop-color:#FEB3B1"/>
				</linearGradient>
				<path style="fill:url(#SVGID_00000052800225511123180160000004951414260324505263_);" d="M847.035,800.742
					c0,0-4.953-19.031,2.499-23.826c7.451-4.796,18.323-2.06,15.677,12.45C861.919,807.415,847.035,800.742,847.035,800.742z"/>
			</g>
			<path style="fill:#91B3FA;" d="M778.291,755.882c-0.184,0-0.359-0.104-0.442-0.281c-5.947-12.736,7.942-22.911,8.083-23.012
				c0.219-0.157,0.522-0.107,0.68,0.111c0.157,0.219,0.108,0.523-0.111,0.68c-0.134,0.096-13.372,9.809-7.769,21.809
				c0.114,0.244,0.009,0.534-0.235,0.648C778.43,755.867,778.359,755.882,778.291,755.882z"/>
		</g>
		<g>
			<path style="fill:#FFFFFF;" d="M1895.065,1244.526l3.582-4.679c0.987-1.289,0.772-3.158-0.479-4.175
				c-1.251-1.017-3.066-0.796-4.053,0.493l-0.019,0.024l-0.044,0.06l-3.444,4.598l-0.044,0.059
				c-0.963,1.286-0.732,3.133,0.516,4.126C1892.319,1246.019,1894.097,1245.789,1895.065,1244.526z"/>
			<path style="fill:#FFFFFF;" d="M1906.551,1228.578l3.189-4.972c0.909-1.418,0.531-3.327-0.845-4.264
				c-1.376-0.937-3.229-0.547-4.138,0.871l-0.017,0.027l-0.04,0.064l-3.057,4.878l-0.04,0.064c-0.885,1.413-0.492,3.298,0.879,4.21
				C1903.843,1230.363,1905.658,1229.968,1906.551,1228.578z"/>
			<path style="fill:#FFFFFF;" d="M1916.71,1211.699l2.783-5.224c0.82-1.54,0.274-3.474-1.221-4.319
				c-1.495-0.845-3.372-0.282-4.192,1.258l-0.016,0.03l-0.035,0.068l-2.659,5.119l-0.035,0.068
				c-0.797,1.533-0.236,3.443,1.253,4.263C1914.067,1213.776,1915.905,1213.209,1916.71,1211.699z"/>
			<path style="fill:#FFFFFF;" d="M1925.506,1194.026l2.37-5.436c0.721-1.655,0.004-3.599-1.602-4.343
				c-1.606-0.744-3.494-0.005-4.215,1.65l-0.014,0.032l-0.03,0.07l-2.254,5.32l-0.03,0.071c-0.698,1.647,0.032,3.565,1.631,4.284
				C1922.95,1196.388,1924.798,1195.649,1925.506,1194.026z"/>
			<path style="fill:#FFFFFF;" d="M1932.924,1175.694l1.956-5.608c0.615-1.761-0.274-3.702-1.983-4.336
				c-1.71-0.633-3.594,0.282-4.208,2.044l-0.012,0.034l-0.024,0.072l-1.849,5.484l-0.025,0.073
				c-0.591,1.752,0.309,3.665,2.009,4.274C1930.476,1178.334,1932.32,1177.423,1932.924,1175.694z"/>
			<path style="fill:#FFFFFF;" d="M1938.965,1156.835l1.546-5.742c0.5-1.859-0.557-3.784-2.361-4.3
				c-1.805-0.515-3.673,0.574-4.174,2.433l-0.01,0.036l-0.019,0.074l-1.448,5.611l-0.019,0.073c-0.477,1.848,0.59,3.744,2.383,4.235
				C1936.645,1159.743,1938.473,1158.66,1938.965,1156.835z"/>
			<path style="fill:#FFFFFF;" d="M1943.644,1137.57l1.142-5.841c0.38-1.948-0.843-3.844-2.734-4.237
				c-1.89-0.392-3.731,0.869-4.112,2.816l-0.007,0.038l-0.014,0.074l-1.054,5.704l-0.014,0.075c-0.357,1.935,0.875,3.801,2.753,4.17
				C1941.469,1140.734,1943.27,1139.482,1943.644,1137.57z"/>
			<path style="fill:#FFFFFF;" d="M1946.985,1118.011l0.745-5.909c0.256-2.027-1.132-3.884-3.1-4.148
				c-1.968-0.263-3.77,1.166-4.026,3.193l-0.005,0.039l-0.008,0.075l-0.667,5.766l-0.009,0.076
				c-0.233,2.012,1.162,3.839,3.116,4.078C1944.971,1121.42,1946.733,1120.002,1946.985,1118.011z"/>
			<path style="fill:#FFFFFF;" d="M1949.014,1098.262l0.357-5.947c0.126-2.098-1.422-3.903-3.458-4.033
				c-2.036-0.13-3.789,1.465-3.915,3.563l-0.002,0.04l-0.004,0.075l-0.288,5.8l-0.004,0.076c-0.104,2.082,1.45,3.856,3.471,3.962
				C1947.177,1101.904,1948.89,1100.323,1949.014,1098.262z"/>
			<path style="fill:#FFFFFF;" d="M1949.76,1078.417l-0.022-5.959c-0.008-2.159-1.714-3.903-3.809-3.894
				c-2.096,0.008-3.788,1.766-3.78,3.925l0,0.042l0.001,0.075l0.082,5.807l0.001,0.076c0.03,2.141,1.74,3.852,3.818,3.821
				C1948.115,1082.278,1949.767,1080.538,1949.76,1078.417z"/>
			<path style="fill:#FFFFFF;" d="M1949.25,1058.562l-0.394-5.946c-0.147-2.212-2.006-3.882-4.152-3.731
				c-2.147,0.151-3.768,2.067-3.621,4.278l0.003,0.043l0.006,0.076l0.444,5.789l0.006,0.077c0.168,2.192,2.029,3.829,4.157,3.656
				C1947.812,1062.63,1949.393,1060.735,1949.25,1058.562z"/>
			<path style="fill:#FFFFFF;" d="M1947.509,1038.778l-0.759-5.909c-0.29-2.254-2.298-3.84-4.486-3.542
				c-2.188,0.298-3.727,2.368-3.438,4.622l0.005,0.043l0.011,0.077l0.799,5.746l0.011,0.077c0.311,2.234,2.32,3.786,4.488,3.466
				C1946.292,1043.041,1947.792,1040.994,1947.509,1038.778z"/>
			<path style="fill:#FFFFFF;" d="M1944.554,1019.136l-1.134-5.853c-0.441-2.277-2.591-3.755-4.801-3.3
				c-2.21,0.454-3.644,2.669-3.203,4.946l0.004,0.023l0.016,0.077l1.135,5.692l0.016,0.078c0.452,2.265,2.6,3.725,4.799,3.26
				C1943.577,1023.595,1944.991,1021.393,1944.554,1019.136z"/>
			<path style="fill:#FFFFFF;" d="M1940.361,999.731l-1.488-5.763c-0.587-2.273-2.851-3.626-5.057-3.022
				c-2.206,0.605-3.519,2.937-2.932,5.21l0.006,0.023l0.02,0.078l1.478,5.599l0.021,0.078c0.596,2.261,2.859,3.595,5.053,2.981
				C1939.648,1004.302,1940.942,1001.984,1940.361,999.731z"/>
			<path style="fill:#FFFFFF;" d="M1934.992,980.638l-1.838-5.656c-0.734-2.259-3.107-3.477-5.299-2.72
				c-2.192,0.756-3.374,3.2-2.64,5.459l0.007,0.022l0.026,0.078l1.817,5.491l0.026,0.078c0.744,2.246,3.113,3.446,5.293,2.68
				C1934.555,985.305,1935.719,982.877,1934.992,980.638z"/>
			<path style="fill:#FFFFFF;" d="M1928.456,961.928l-2.186-5.526c-0.884-2.234-3.358-3.306-5.526-2.395
				c-2.168,0.91-3.209,3.459-2.325,5.693l0.009,0.023l0.032,0.078l2.153,5.357l0.031,0.078c0.892,2.22,3.362,3.275,5.517,2.355
				C1928.309,966.674,1929.332,964.143,1928.456,961.928z"/>
			<path style="fill:#FFFFFF;" d="M1920.764,943.682l-2.536-5.378c-1.035-2.197-3.603-3.112-5.735-2.045
				c-2.132,1.067-3.021,3.713-1.985,5.909l0.01,0.022l0.037,0.078l2.49,5.207l0.038,0.078c1.043,2.182,3.606,3.08,5.725,2.005
				C1920.919,948.487,1921.791,945.86,1920.764,943.682z"/>
			<path style="fill:#FFFFFF;" d="M1911.919,925.979l-2.877-5.192c-1.19-2.147-3.843-2.893-5.927-1.667
				c-2.083,1.226-2.808,3.959-1.618,6.106l0.012,0.021l0.044,0.078l2.817,5.018l0.044,0.079c1.197,2.132,3.844,2.861,5.914,1.628
				C1912.389,930.821,1913.098,928.107,1911.919,925.979z"/>
			<path style="fill:#FFFFFF;" d="M1901.933,908.918l-3.215-4.977c-1.345-2.083-4.075-2.647-6.097-1.261
				c-2.021,1.386-2.57,4.198-1.224,6.281l0.013,0.021l0.051,0.078l3.14,4.802l0.051,0.078c1.352,2.067,4.074,2.614,6.081,1.222
				C1902.733,913.774,1903.267,910.983,1901.933,908.918z"/>
			<path style="fill:#FFFFFF;" d="M1890.841,892.609l-3.515-4.733c-1.493-2.011-4.286-2.393-6.238-0.855
				c-1.952,1.539-2.323,4.416-0.83,6.427l0.015,0.02l0.05,0.067l3.44,4.579l0.051,0.067c1.499,1.995,4.283,2.361,6.22,0.817
				C1891.963,897.458,1892.321,894.602,1890.841,892.609z"/>
			<path style="fill:#FFFFFF;" d="M1878.787,877.082l-3.795-4.508c-1.629-1.936-4.472-2.144-6.351-0.466
				c-1.879,1.679-2.081,4.608-0.452,6.544l0.016,0.019l0.054,0.063l3.711,4.36l0.054,0.064c1.634,1.919,4.468,2.111,6.331,0.428
				C1880.211,881.909,1880.402,879.002,1878.787,877.082z"/>
			<path style="fill:#FFFFFF;" d="M1865.837,862.334l-4.049-4.265c-1.759-1.854-4.643-1.887-6.441-0.075
				c-1.799,1.812-1.831,4.784-0.072,6.637l0.018,0.018l0.057,0.059l3.958,4.124l0.057,0.059c1.763,1.837,4.637,1.853,6.419,0.038
				C1867.559,867.12,1867.58,864.172,1865.837,862.334z"/>
			<path style="fill:#FFFFFF;" d="M1852.063,848.407l-4.282-4.014c-1.882-1.764-4.797-1.622-6.509,0.316
				c-1.713,1.939-1.575,4.942,0.307,6.706l0.019,0.018l0.059,0.055l4.185,3.88l0.059,0.055c1.885,1.747,4.789,1.59,6.485-0.352
				C1854.077,853.135,1853.929,850.157,1852.063,848.407z"/>
			<path style="fill:#FFFFFF;" d="M1837.536,835.325l-4.495-3.756c-1.999-1.67-4.934-1.356-6.555,0.704
				c-1.622,2.06-1.315,5.083,0.684,6.754l0.02,0.017l0.061,0.05l4.393,3.63l0.061,0.051c2.001,1.653,4.924,1.322,6.529-0.739
				C1839.832,839.981,1839.518,836.982,1837.536,835.325z"/>
			<path style="fill:#FFFFFF;" d="M1822.322,823.107l-4.688-3.495c-2.109-1.572-5.056-1.085-6.581,1.087
				c-1.526,2.173-1.053,5.209,1.055,6.781l0.021,0.016l0.062,0.046l4.582,3.376l0.063,0.047c2.11,1.555,5.044,1.053,6.553-1.121
				C1824.892,827.677,1824.413,824.667,1822.322,823.107z"/>
			<path style="fill:#FFFFFF;" d="M1806.488,811.765l-4.862-3.231c-2.212-1.47-5.162-0.814-6.589,1.465
				c-1.427,2.279-0.79,5.318,1.422,6.788l0.022,0.015l0.063,0.041l4.752,3.12l0.064,0.042c2.212,1.453,5.149,0.783,6.558-1.497
				C1809.323,816.236,1808.681,813.224,1806.488,811.765z"/>
			<path style="fill:#FFFFFF;" d="M1790.096,801.304l-5.017-2.965c-2.308-1.365-5.253-0.543-6.578,1.835
				c-1.325,2.378-0.527,5.412,1.781,6.776l0.023,0.014l0.064,0.037l4.904,2.862l0.065,0.037c2.308,1.347,5.239,0.511,6.546-1.866
				C1793.187,805.665,1792.385,802.658,1790.096,801.304z"/>
			<path style="fill:#FFFFFF;" d="M1773.199,791.744l-5.16-2.689c-2.386-1.243-5.298-0.259-6.505,2.199
				c-1.207,2.458-0.251,5.459,2.135,6.702l0.005,0.002l0.065,0.034l5.034,2.616l0.065,0.033c2.386,1.24,5.295,0.252,6.498-2.206
				C1776.539,795.978,1775.585,792.983,1773.199,791.744z"/>
			<path style="fill:#FFFFFF;" d="M1755.854,783.091l-5.281-2.423c-2.448-1.123-5.316,0.011-6.406,2.533
				c-1.09,2.522,0.01,5.477,2.458,6.6l0.005,0.002l0.065,0.029l5.154,2.358l0.065,0.03c2.448,1.12,5.313-0.017,6.399-2.539
				C1759.399,787.159,1758.301,784.21,1755.854,783.091z"/>
			<path style="fill:#FFFFFF;" d="M1738.123,775.322l-5.387-2.158c-2.503-1.003-5.322,0.275-6.295,2.854s0.267,5.483,2.77,6.486
				l0.005,0.002l0.064,0.026l5.26,2.1l0.065,0.026c2.503,0.999,5.318-0.281,6.288-2.86
				C1741.863,779.22,1740.626,776.322,1738.123,775.322z"/>
			<path style="fill:#FFFFFF;" d="M1720.056,768.437l-5.475-1.893c-2.552-0.882-5.316,0.534-6.172,3.164
				c-0.857,2.629,0.518,5.476,3.07,6.359l0.005,0.002l0.065,0.023l5.348,1.842l0.065,0.022c2.552,0.879,5.311-0.539,6.164-3.169
				C1723.98,772.156,1722.608,769.315,1720.056,768.437z"/>
			<path style="fill:#FFFFFF;" d="M1701.703,762.431l-5.56-1.631c-2.595-0.761-5.298,0.789-6.037,3.463
				c-0.739,2.674,0.766,5.459,3.361,6.22l0.006,0.001l0.065,0.019l5.432,1.586l0.065,0.019c2.594,0.758,5.293-0.795,6.029-3.467
				C1705.798,765.968,1704.297,763.189,1701.703,762.431z"/>
			<path style="fill:#FFFFFF;" d="M1683.096,757.303l-5.632-1.368c-2.632-0.64-5.269,1.04-5.89,3.752
				c-0.621,2.712,1.01,5.429,3.642,6.069l0.005,0.001l0.065,0.016l5.503,1.331l0.065,0.016c2.631,0.636,5.264-1.046,5.882-3.756
				C1687.354,760.651,1685.727,757.94,1683.096,757.303z"/>
			<path style="fill:#FFFFFF;" d="M1664.278,753.054l-5.677-1.102c-2.664-0.517-5.23,1.289-5.732,4.033s1.25,5.388,3.914,5.905
				l0.006,0.001l0.065,0.013l5.547,1.07l0.065,0.013c2.662,0.514,5.225-1.294,5.723-4.036
				C1668.689,756.207,1666.94,753.568,1664.278,753.054z"/>
			<path style="fill:#FFFFFF;" d="M1645.302,749.689l-5.72-0.837c-2.69-0.394-5.18,1.534-5.562,4.305
				c-0.382,2.771,1.489,5.337,4.178,5.73l0.006,0.001l0.066,0.01l5.589,0.811l0.066,0.01c2.688,0.391,5.175-1.538,5.553-4.308
				C1649.857,752.64,1647.99,750.079,1645.302,749.689z"/>
			<path style="fill:#FFFFFF;" d="M1626.197,747.208l-5.75-0.571c-2.71-0.268-5.119,1.777-5.38,4.569
				c-0.261,2.792,1.724,5.274,4.435,5.543l0.006,0l0.067,0.006l5.618,0.551l0.067,0.007c2.709,0.266,5.114-1.782,5.371-4.572
				C1630.887,749.951,1628.906,747.474,1626.197,747.208z"/>
			<path style="fill:#FFFFFF;" d="M1607.002,745.62l-5.777-0.302c-2.726-0.142-5.047,2.019-5.186,4.826
				c-0.138,2.809,1.959,5.2,4.685,5.343h0.006l0.067,0.004l5.643,0.288l0.068,0.003c2.724,0.139,5.041-2.023,5.176-4.83
				C1611.819,748.146,1609.726,745.758,1607.002,745.62z"/>
			<path style="fill:#FFFFFF;" d="M1587.742,744.931l-5.779-0.029c-2.735-0.014-4.963,2.259-4.977,5.077s2.193,5.114,4.928,5.128
				h0.006h0.068l5.642,0.022h0.068c2.733,0.01,4.957-2.264,4.968-5.08C1592.677,747.233,1590.475,744.941,1587.742,744.931z"/>
			<path style="fill:#FFFFFF;" d="M1568.496,745.133l-5.767,0.222c-2.74,0.106-4.877,2.479-4.775,5.302
				c0.102,2.822,2.406,5.025,5.146,4.919l0.006,0l0.061-0.003l5.645-0.224l0.061-0.003c2.737-0.109,4.871-2.483,4.766-5.303
				C1573.532,747.223,1571.233,745.024,1568.496,745.133z"/>
			<path style="fill:#FFFFFF;" d="M1549.286,746.156l-5.753,0.464c-2.739,0.221-4.786,2.687-4.572,5.509
				c0.214,2.822,2.608,4.931,5.348,4.711l0.006,0l0.059-0.005l5.633-0.461l0.06-0.005c2.737-0.224,4.78-2.691,4.563-5.511
				C1554.412,748.038,1552.023,745.933,1549.286,746.156z"/>
			<path style="fill:#FFFFFF;" d="M1530.136,747.976l-5.729,0.697c-2.735,0.333-4.69,2.887-4.367,5.705
				c0.323,2.818,2.802,4.832,5.537,4.499l0.006-0.001l0.058-0.007l5.612-0.69l0.058-0.007c2.733-0.336,4.683-2.89,4.357-5.706
				C1535.342,749.651,1532.868,747.64,1530.136,747.976z"/>
			<path style="fill:#FFFFFF;" d="M1511.075,750.566l-5.697,0.924c-2.726,0.442-4.589,3.078-4.16,5.887
				c0.429,2.809,2.987,4.727,5.714,4.285l0.006-0.001l0.056-0.009l5.584-0.912l0.056-0.009c2.724-0.445,4.582-3.081,4.15-5.888
				C1516.352,752.037,1513.799,750.121,1511.075,750.566z"/>
			<path style="fill:#FFFFFF;" d="M1492.129,753.902l-5.658,1.142c-2.715,0.548-4.484,3.259-3.952,6.056
				c0.532,2.797,3.163,4.62,5.878,4.072l0.006-0.002l0.054-0.011l5.548-1.127l0.054-0.011c2.712-0.551,4.478-3.263,3.943-6.057
				C1497.467,755.171,1494.841,753.352,1492.129,753.902z"/>
			<path style="fill:#FFFFFF;" d="M1473.321,757.955l-5.612,1.352c-2.699,0.65-4.376,3.432-3.745,6.213
				c0.631,2.781,3.331,4.509,6.031,3.859l0.006-0.001l0.052-0.013l5.507-1.333l0.052-0.013c2.697-0.653,4.37-3.435,3.736-6.213
				C1478.712,759.027,1476.018,757.302,1473.321,757.955z"/>
			<path style="fill:#FFFFFF;" d="M1454.671,762.698l-5.561,1.553c-2.682,0.749-4.267,3.596-3.54,6.358
				c0.727,2.763,3.49,4.395,6.172,3.647l0.006-0.002l0.05-0.014l5.459-1.531l0.05-0.014c2.679-0.752,4.26-3.599,3.53-6.359
				C1460.107,763.576,1457.35,761.946,1454.671,762.698z"/>
			<path style="fill:#FFFFFF;" d="M1436.196,768.101l-5.506,1.746c-2.661,0.843-4.155,3.751-3.336,6.493
				c0.819,2.742,3.64,4.281,6.302,3.437l0.006-0.002l0.048-0.015l5.408-1.721l0.048-0.015c2.659-0.846,4.148-3.753,3.326-6.492
				C1441.67,768.791,1438.854,767.255,1436.196,768.101z"/>
			<path style="fill:#FFFFFF;" d="M1417.912,774.136l-5.446,1.93c-2.639,0.935-4.043,3.897-3.135,6.616s3.783,4.165,6.422,3.23
				l0.006-0.002l0.046-0.016l5.352-1.903l0.046-0.017c2.636-0.938,4.036-3.9,3.125-6.615
				C1423.417,774.642,1420.548,773.198,1417.912,774.136z"/>
			<path style="fill:#FFFFFF;" d="M1399.836,780.788l-5.379,2.116c-2.6,1.023-3.904,4.024-2.911,6.703
				c0.993,2.679,3.906,4.022,6.507,2.999l0.031-0.012l5.296-2.067l0.044-0.017c2.607-1.017,3.92-4.019,2.933-6.706
				c-0.987-2.686-3.902-4.039-6.509-3.022L1399.836,780.788z"/>
			<path style="fill:#FFFFFF;" d="M1381.985,788.039l-5.305,2.281c-2.556,1.099-3.763,4.124-2.696,6.757
				c1.067,2.633,4.003,3.877,6.558,2.777l0.029-0.013l5.228-2.23l0.042-0.018c2.563-1.094,3.78-4.12,2.718-6.76
				c-1.061-2.64-3.999-3.894-6.562-2.8L1381.985,788.039z"/>
			<path style="fill:#FFFFFF;" d="M1364.375,795.834l-5.241,2.444c-2.51,1.17-3.624,4.215-2.488,6.8
				c1.136,2.586,4.091,3.734,6.601,2.564l0.027-0.013l5.168-2.391l0.04-0.019c2.517-1.165,3.641-4.211,2.51-6.804
				c-1.13-2.593-4.088-3.751-6.604-2.586L1364.375,795.834z"/>
			<path style="fill:#FFFFFF;" d="M1346.983,804.162l-5.174,2.598c-2.463,1.237-3.487,4.298-2.286,6.836
				c1.201,2.538,4.171,3.592,6.635,2.355l0.026-0.013l5.105-2.546l0.038-0.019c2.47-1.232,3.504-4.295,2.308-6.84
				c-1.196-2.545-4.168-3.609-6.639-2.378L1346.983,804.162z"/>
			<path style="fill:#FFFFFF;" d="M1329.83,812.992l-5.103,2.746c-2.416,1.3-3.352,4.373-2.09,6.863
				c1.262,2.489,4.244,3.453,6.66,2.152l0.024-0.013l5.038-2.693l0.036-0.02c2.424-1.296,3.369-4.37,2.111-6.867
				c-1.257-2.497-4.242-3.471-6.665-2.175L1329.83,812.992z"/>
			<path style="fill:#FFFFFF;" d="M1312.92,822.305l-5.031,2.888c-2.368,1.36-3.219,4.441-1.899,6.881
				c1.32,2.44,4.31,3.316,6.679,1.957l0.023-0.013l4.969-2.834l0.034-0.02c2.376-1.355,3.236-4.439,1.921-6.887
				c-1.315-2.448-4.308-3.334-6.684-1.979L1312.92,822.305z"/>
			<path style="fill:#FFFFFF;" d="M1296.259,832.078l-4.954,3.023c-2.321,1.416-3.088,4.501-1.714,6.893
				c1.374,2.391,4.37,3.181,6.691,1.766l0.021-0.013l4.897-2.968l0.033-0.02c2.328-1.412,3.105-4.501,1.735-6.9
				c-1.37-2.398-4.368-3.199-6.697-1.788L1296.259,832.078z"/>
			<path style="fill:#FFFFFF;" d="M1279.853,842.292l-4.876,3.15c-2.273,1.469-2.96,4.557-1.534,6.899
				c1.425,2.342,4.423,3.049,6.696,1.581l0.02-0.013l4.822-3.097l0.031-0.02c2.281-1.465,2.977-4.556,1.555-6.906
				c-1.422-2.349-4.422-3.067-6.703-1.602L1279.853,842.292z"/>
			<path style="fill:#FFFFFF;" d="M1263.708,852.929l-4.794,3.272c-2.224,1.518-2.833,4.607-1.359,6.899
				c1.474,2.292,4.471,2.919,6.696,1.401l0.019-0.013l4.743-3.218l0.03-0.02c2.232-1.514,2.85-4.606,1.38-6.906
				c-1.47-2.3-4.471-2.936-6.703-1.422L1263.708,852.929z"/>
			<path style="fill:#FFFFFF;" d="M1247.828,863.97l-4.709,3.386c-2.176,1.565-2.709,4.651-1.19,6.894
				c1.519,2.242,4.514,2.791,6.691,1.227l0.016-0.011l4.665-3.335l0.027-0.019c2.184-1.561,2.726-4.651,1.211-6.901
				c-1.515-2.25-4.514-2.809-6.698-1.248L1247.828,863.97z"/>
			<path style="fill:#FFFFFF;" d="M1232.223,875.372l-4.633,3.482c-2.133,1.602-2.601,4.683-1.045,6.88
				c1.555,2.198,4.545,2.68,6.677,1.077l0.012-0.009l4.598-3.435l0.023-0.017c2.14-1.599,2.617-4.683,1.065-6.888
				c-1.552-2.205-4.546-2.697-6.686-1.097L1232.223,875.372z"/>
			<path style="fill:#FFFFFF;" d="M1216.857,887.074l-4.568,3.562c-2.093,1.632-2.506,4.703-0.922,6.86
				c1.584,2.157,4.565,2.582,6.659,0.95l0.008-0.006l4.541-3.521l0.019-0.014c2.101-1.629,2.523-4.704,0.942-6.869
				c-1.581-2.164-4.566-2.599-6.667-0.97L1216.857,887.074z"/>
			<path style="fill:#FFFFFF;" d="M1201.687,899.032l-4.515,3.627c-2.059,1.654-2.427,4.715-0.821,6.836
				c1.605,2.122,4.576,2.5,6.635,0.846l0.004-0.003l4.495-3.591l0.015-0.011c2.067-1.651,2.443-4.716,0.841-6.845
				c-1.602-2.129-4.577-2.517-6.643-0.866L1201.687,899.032z"/>
			<path style="fill:#FFFFFF;" d="M1186.691,911.184l-4.472,3.677c-2.029,1.668-2.362,4.716-0.742,6.807
				c1.62,2.091,4.577,2.433,6.607,0.765l0-0.001l4.46-3.646l0.011-0.009c2.037-1.665,2.378-4.717,0.762-6.816
				c-1.616-2.099-4.578-2.45-6.616-0.785L1186.691,911.184z"/>
			<path style="fill:#FFFFFF;" d="M1171.823,923.484l-4.441,3.712c-2.005,1.676-2.312,4.709-0.685,6.775
				c1.626,2.066,4.568,2.385,6.573,0.709l4.437-3.688c2.016-1.669,2.337-4.706,0.717-6.783c-1.62-2.077-4.567-2.408-6.583-0.739
				L1171.823,923.484z"/>
			<path style="fill:#FFFFFF;" d="M1157.046,935.883l-4.421,3.732c-1.986,1.676-2.277,4.694-0.65,6.74
				c1.627,2.046,4.55,2.351,6.536,0.675l4.424-3.713c1.995-1.672,2.298-4.693,0.676-6.749c-1.623-2.056-4.555-2.367-6.551-0.696
				L1157.046,935.883z"/>
			<path style="fill:#FFFFFF;" d="M1142.323,948.332l-4.412,3.737c-1.972,1.67-2.257,4.672-0.636,6.704
				c1.621,2.032,4.525,2.333,6.497,0.663l4.422-3.724c1.98-1.668,2.273-4.673,0.655-6.713c-1.619-2.04-4.536-2.342-6.516-0.675
				L1142.323,948.332z"/>
			<path style="fill:#FFFFFF;" d="M1127.615,960.781l-4.415,3.727c-1.965,1.656-2.255,4.639-0.648,6.664
				c1.607,2.025,4.497,2.329,6.462,0.673l4.431-3.721c1.971-1.655,2.267-4.643,0.661-6.674c-1.606-2.031-4.507-2.336-6.478-0.681
				L1127.615,960.781z"/>
			<path style="fill:#FFFFFF;" d="M1112.886,973.18l-4.428,3.703c-1.963,1.635-2.268,4.6-0.681,6.622
				c1.587,2.022,4.462,2.339,6.425,0.704l4.451-3.701c1.968-1.636,2.276-4.606,0.688-6.633c-1.588-2.027-4.471-2.344-6.438-0.708
				L1112.886,973.18z"/>
			<path style="fill:#FFFFFF;" d="M1098.1,985.48l-4.453,3.663l-0.01,0.008c-1.961,1.613-2.282,4.559-0.715,6.58
				c1.566,2.021,4.416,2.359,6.377,0.745l4.483-3.667c1.969-1.611,2.298-4.561,0.734-6.59c-1.563-2.029-4.427-2.368-6.396-0.757
				l-0.01,0.008L1098.1,985.48z"/>
			<path style="fill:#FFFFFF;" d="M1083.219,997.631l-4.488,3.609l-0.014,0.011c-1.967,1.582-2.318,4.507-0.782,6.534
				c1.535,2.027,4.365,2.395,6.332,0.813l4.525-3.618c1.975-1.578,2.333-4.508,0.801-6.543c-1.532-2.035-4.376-2.404-6.351-0.825
				l-0.01,0.008L1083.219,997.631z"/>
			<path style="fill:#FFFFFF;" d="M1068.207,1009.583l-4.536,3.54l-0.018,0.014c-1.978,1.543-2.367,4.446-0.869,6.484
				c1.498,2.038,4.306,2.446,6.284,0.902l4.582-3.555c1.985-1.541,2.382-4.448,0.887-6.493c-1.495-2.045-4.317-2.455-6.302-0.914
				l-0.01,0.008L1068.207,1009.583z"/>
			<path style="fill:#FFFFFF;" d="M1053.025,1021.28l-4.593,3.451l-0.021,0.016c-1.993,1.498-2.43,4.376-0.977,6.429
				c1.453,2.053,4.237,2.512,6.23,1.014l4.644-3.469c2.001-1.495,2.446-4.377,0.996-6.438c-1.45-2.061-4.248-2.52-6.248-1.026
				l-0.01,0.007L1053.025,1021.28z"/>
			<path style="fill:#FFFFFF;" d="M1037.641,1032.667l-4.659,3.349l-0.025,0.018c-2.011,1.446-2.504,4.297-1.101,6.369
				c1.403,2.072,4.161,2.587,6.172,1.141l4.717-3.371c2.019-1.442,2.52-4.298,1.12-6.377c-1.4-2.079-4.171-2.596-6.19-1.153
				l-0.01,0.007L1037.641,1032.667z"/>
			<path style="fill:#FFFFFF;" d="M1022.028,1043.697l-4.732,3.231l-0.028,0.019c-2.032,1.388-2.587,4.21-1.24,6.303
				c1.347,2.094,4.076,2.672,6.108,1.285l4.796-3.256c2.039-1.384,2.603-4.21,1.26-6.311c-1.344-2.101-4.086-2.682-6.125-1.297
				l-0.01,0.007L1022.028,1043.697z"/>
			<path style="fill:#FFFFFF;" d="M1006.177,1054.337l-4.806,3.106l-0.032,0.021c-2.037,1.317-2.652,4.085-1.374,6.184
				c1.273,2.09,3.945,2.727,5.979,1.431l4.887-3.115c2.054-1.309,2.688-4.085,1.418-6.201c-1.27-2.116-3.965-2.769-6.018-1.461
				l-0.023,0.015L1006.177,1054.337z"/>
			<path style="fill:#FFFFFF;" d="M990.06,1064.521l-4.891,2.955l-0.035,0.022c-2.046,1.236-2.731,3.946-1.531,6.054
				c1.195,2.099,3.811,2.807,5.853,1.592l4.979-2.965c2.062-1.228,2.767-3.946,1.575-6.07c-1.192-2.124-3.83-2.851-5.892-1.623
				l-0.023,0.014L990.06,1064.521z"/>
			<path style="fill:#FFFFFF;" d="M973.655,1074.178l-4.98,2.785l-0.039,0.022c-2.055,1.149-2.817,3.798-1.701,5.915
				c1.111,2.109,3.667,2.895,5.718,1.766l5.075-2.796c2.071-1.141,2.852-3.796,1.745-5.929c-1.107-2.134-3.684-2.939-5.755-1.798
				l-0.024,0.013L973.655,1074.178z"/>
			<path style="fill:#FFFFFF;" d="M956.949,1083.245l-5.072,2.595l-0.043,0.022c-2.065,1.056-2.908,3.637-1.882,5.765
				c1.021,2.119,3.512,2.988,5.571,1.951l5.173-2.605c2.08-1.047,2.942-3.634,1.926-5.777c-1.017-2.143-3.527-3.031-5.607-1.984
				l-0.024,0.012L956.949,1083.245z"/>
			<path style="fill:#FFFFFF;" d="M939.935,1091.652l-5.166,2.383l-0.047,0.022c-2.074,0.957-3.002,3.465-2.073,5.601
				c0.925,2.128,3.344,3.085,5.413,2.147l5.274-2.392c2.089-0.947,3.036-3.46,2.117-5.612c-0.92-2.152-3.358-3.128-5.447-2.181
				l-0.024,0.011L939.935,1091.652z"/>
			<path style="fill:#FFFFFF;" d="M922.616,1099.327l-5.251,2.147l-0.051,0.021c-2.081,0.851-3.099,3.279-2.273,5.423
				c0.823,2.136,3.165,3.184,5.24,2.351l5.367-2.154c2.096-0.841,3.133-3.273,2.316-5.433c-0.816-2.159-3.177-3.227-5.273-2.386
				l-0.024,0.01L922.616,1099.327z"/>
			<path style="fill:#FFFFFF;" d="M904.994,1106.197l-5.337,1.891l-0.055,0.019c-2.086,0.739-3.196,3.081-2.478,5.23
				c0.715,2.141,2.973,3.282,5.053,2.561l5.458-1.894c2.1-0.729,3.229-3.074,2.522-5.237c-0.707-2.164-2.983-3.327-5.083-2.598
				l-0.024,0.009L904.994,1106.197z"/>
			<path style="fill:#FFFFFF;" d="M887.086,1112.189l-5.422,1.615l-0.059,0.017c-2.087,0.622-3.29,2.869-2.687,5.02
				c0.601,2.142,2.769,3.38,4.849,2.776l5.548-1.614c2.101-0.611,3.323-2.86,2.73-5.025c-0.593-2.164-2.777-3.424-4.878-2.813
				l-0.024,0.007L887.086,1112.189z"/>
			<path style="fill:#FFFFFF;" d="M868.912,1117.233l-5.495,1.312l-0.068,0.016c-2.085,0.498-3.383,2.642-2.899,4.79
				c0.481,2.139,2.549,3.474,4.625,2.993l5.639-1.308c2.097-0.486,3.414-2.632,2.942-4.793c-0.472-2.161-2.555-3.518-4.652-3.032
				l-0.024,0.006L868.912,1117.233z"/>
			<path style="fill:#FFFFFF;" d="M850.512,1121.21l-5.562,0.97l-0.068,0.012c-2.077,0.362-3.476,2.391-3.124,4.531
				c0.35,2.131,2.306,3.569,4.374,3.223l5.704-0.957c2.089-0.351,3.507-2.38,3.167-4.532c-0.34-2.152-2.31-3.613-4.399-3.262
				l-0.024,0.004L850.512,1121.21z"/>
			<path style="fill:#FFFFFF;" d="M831.911,1124.039l-5.609,0.622l-0.069,0.008c-2.062,0.228-3.553,2.135-3.331,4.26
				c0.221,2.115,2.06,3.648,4.111,3.435l5.75-0.6c2.073-0.217,3.583-2.123,3.373-4.259c-0.21-2.136-2.061-3.692-4.134-3.475
				l-0.024,0.002L831.911,1124.039z"/>
			<path style="fill:#FFFFFF;" d="M813.177,1125.698l-5.635,0.264l-0.069,0.003c-2.039,0.096-3.616,1.876-3.523,3.976
				c0.092,2.091,1.808,3.712,3.836,3.63l5.775-0.233c2.049-0.083,3.645-1.861,3.564-3.972c-0.08-2.111-1.807-3.755-3.855-3.672
				l-0.023,0.001L813.177,1125.698z"/>
			<path style="fill:#FFFFFF;" d="M794.382,1126.152l-5.639-0.105l-0.071-0.001c-2.007-0.037-3.663,1.609-3.699,3.677
				c-0.036,2.06,1.55,3.761,3.545,3.811l5.779,0.145c2.017,0.051,3.692-1.593,3.741-3.671c0.049-2.078-1.546-3.803-3.563-3.854
				l-0.023,0L794.382,1126.152z"/>
			<path style="fill:#FFFFFF;" d="M775.603,1125.359l-5.618-0.488l-0.073-0.006c-1.967-0.171-3.696,1.333-3.862,3.36
				c-0.165,2.018,1.284,3.794,3.239,3.978l5.759,0.538c1.976,0.184,3.723-1.316,3.903-3.352c0.179-2.036-1.278-3.836-3.254-4.021
				l-0.023-0.002L775.603,1125.359z"/>
			<path style="fill:#FFFFFF;" d="M756.926,1123.27l-5.569-0.887l-0.075-0.012c-1.918-0.305-3.714,1.049-4.01,3.025
				c-0.295,1.969,1.008,3.812,2.914,4.128l5.712,0.948c1.926,0.319,3.74-1.03,4.05-3.015c0.31-1.984-1-3.853-2.926-4.172
				l-0.022-0.004L756.926,1123.27z"/>
			<path style="fill:#FFFFFF;" d="M738.446,1119.831l-5.489-1.303l-0.076-0.018c-1.859-0.441-3.714,0.754-4.142,2.67
				c-0.427,1.907,0.723,3.811,2.57,4.262l5.632,1.376c1.866,0.456,3.738-0.734,4.18-2.656c0.442-1.923-0.712-3.852-2.578-4.307
				l-0.021-0.005L738.446,1119.831z"/>
			<path style="fill:#FFFFFF;" d="M720.276,1114.988l-5.372-1.735l-0.078-0.025c-1.789-0.578-3.694,0.448-4.255,2.291
				c-0.558,1.836,0.428,3.791,2.204,4.377l5.516,1.82c1.795,0.592,3.716-0.427,4.291-2.276c0.575-1.85-0.414-3.829-2.209-4.422
				l-0.02-0.007L720.276,1114.988z"/>
			<path style="fill:#FFFFFF;" d="M702.542,1108.69l-5.214-2.177l-0.078-0.032c-1.706-0.712-3.648,0.135-4.339,1.893
				c-0.688,1.749,0.125,3.742,1.815,4.462l5.355,2.281c1.711,0.729,3.672-0.109,4.38-1.873c0.708-1.763-0.106-3.783-1.817-4.513
				l-0.022-0.01L702.542,1108.69z"/>
			<path style="fill:#FFFFFF;" d="M685.375,1100.928l-5.016-2.621l-0.077-0.04c-1.592-0.832-3.538-0.177-4.346,1.464
				c-0.802,1.63-0.178,3.619,1.391,4.461l5.142,2.756c1.599,0.857,3.569,0.216,4.401-1.431c0.832-1.647,0.21-3.677-1.389-4.534
				l-0.03-0.016L685.375,1100.928z"/>
			<path style="fill:#FFFFFF;" d="M668.931,1091.66l-4.766-3.075l-0.074-0.048c-1.467-0.946-3.4-0.488-4.319,1.023
				c-0.912,1.501-0.478,3.478,0.965,4.432l4.881,3.223c1.471,0.971,3.428,0.53,4.371-0.986c0.943-1.516,0.515-3.532-0.957-4.503
				l-0.028-0.018L668.931,1091.66z"/>
			<path style="fill:#FFFFFF;" d="M653.378,1080.886l-4.448-3.523l-0.079-0.063c-1.328-1.052-3.233-0.796-4.255,0.573
				c-1.014,1.36-0.774,3.306,0.531,4.364l4.569,3.698c1.331,1.077,3.258,0.839,4.303-0.533c1.046-1.371,0.814-3.356-0.517-4.433
				l-0.025-0.021L653.378,1080.886z"/>
			<path style="fill:#FFFFFF;" d="M638.991,1068.572l-4.063-3.997l-0.066-0.066c-1.172-1.153-3.03-1.109-4.15,0.099
				c-1.112,1.2-1.076,3.098,0.074,4.253l4.155,4.173c1.173,1.178,3.05,1.153,4.193-0.055c1.143-1.208,1.12-3.142-0.053-4.32
				l-0.022-0.023L638.991,1068.572z"/>
			<path style="fill:#FFFFFF;" d="M625.922,1054.751l-3.649-4.41l-0.056-0.068c-1.016-1.227-2.806-1.375-3.997-0.327
				c-1.184,1.04-1.331,2.867-0.337,4.095l3.715,4.585c1.014,1.252,2.821,1.42,4.037,0.375c1.215-1.045,1.378-2.907,0.364-4.159
				l-0.019-0.023L625.922,1054.751z"/>
			<path style="fill:#FFFFFF;" d="M614.265,1039.622l-3.207-4.766l-0.046-0.069c-0.861-1.279-2.566-1.597-3.808-0.71
				c-1.234,0.881-1.546,2.621-0.706,3.899l3.25,4.939c0.857,1.303,2.578,1.643,3.842,0.76c1.265-0.884,1.595-2.656,0.737-3.959
				l-0.016-0.025L614.265,1039.622z"/>
			<path style="fill:#FFFFFF;" d="M604.114,1023.366l-2.737-5.071l-0.038-0.071c-0.708-1.311-2.314-1.783-3.586-1.054
				c-1.264,0.724-1.724,2.363-1.036,3.67l2.761,5.242c0.703,1.334,2.322,1.829,3.617,1.105c1.295-0.724,1.775-2.392,1.072-3.726
				l-0.013-0.025L604.114,1023.366z"/>
			<path style="fill:#FFFFFF;" d="M595.565,1006.149l-2.235-5.327l-0.03-0.073c-0.556-1.325-2.05-1.936-3.337-1.362
				c-1.278,0.569-1.87,2.093-1.333,3.412l2.241,5.498c0.549,1.347,2.055,1.981,3.362,1.415c1.307-0.565,1.922-2.117,1.373-3.463
				l-0.01-0.026L595.565,1006.149z"/>
			<path style="fill:#FFFFFF;" d="M588.732,988.134l-1.696-5.535l-0.023-0.075c-0.406-1.323-1.776-2.057-3.06-1.639
				c-1.276,0.415-1.987,1.812-1.599,3.127l1.685,5.704c0.397,1.344,1.776,2.102,3.08,1.693c1.305-0.409,2.04-1.83,1.643-3.174
				l-0.007-0.026L588.732,988.134z"/>
			<path style="fill:#FFFFFF;" d="M583.744,969.487l-1.115-5.689l-0.015-0.078c-0.256-1.305-1.49-2.149-2.756-1.885
				c-1.258,0.262-2.074,1.519-1.834,2.815l1.086,5.857c0.246,1.324,1.487,2.193,2.772,1.94c1.285-0.253,2.128-1.532,1.883-2.856
				l-0.005-0.025L583.744,969.487z"/>
			<path style="fill:#FFFFFF;" d="M580.747,950.397l-0.487-5.785l-0.007-0.081c-0.107-1.27-1.193-2.21-2.425-2.099
				c-1.224,0.11-2.132,1.215-2.04,2.474l0.441,5.951c0.095,1.288,1.186,2.252,2.436,2.154c1.25-0.098,2.186-1.222,2.091-2.51
				l-0.002-0.024L580.747,950.397z"/>
			<path style="fill:#FFFFFF;" d="M579.9,931.081l0.188-5.797l0.003-0.083c0.04-1.217-0.886-2.237-2.068-2.277
				c-1.174-0.04-2.158,0.902-2.21,2.107l-0.254,5.96c-0.052,1.234,0.876,2.278,2.074,2.332c1.198,0.054,2.211-0.902,2.263-2.136
				l0.001-0.023L579.9,931.081z"/>
			<path style="fill:#FFFFFF;" d="M581.351,911.812l0.902-5.725l0.013-0.082c0.181-1.146-0.575-2.226-1.688-2.413
				c-1.105-0.185-2.147,0.583-2.338,1.717l-0.987,5.879c-0.195,1.161,0.561,2.266,1.688,2.467c1.127,0.201,2.199-0.577,2.394-1.739
				l0.004-0.022L581.351,911.812z"/>
			<path style="fill:#FFFFFF;" d="M585.215,892.907l1.638-5.549l0.023-0.079c0.312-1.057-0.267-2.175-1.293-2.496
				c-1.019-0.319-2.097,0.268-2.417,1.312l-1.743,5.69c-0.328,1.07,0.248,2.211,1.287,2.549c1.039,0.338,2.146-0.256,2.474-1.326
				l0.006-0.02L585.215,892.907z"/>
		</g>
		<g>
			<g>
				
					<linearGradient id="SVGID_00000154416773698419863020000012654978651484008856_" gradientUnits="userSpaceOnUse" x1="1612.3704" y1="1130.8944" x2="1721.5162" y2="802.2823">
					<stop  offset="0" style="stop-color:#09005D"/>
					<stop  offset="1" style="stop-color:#1A0F91"/>
				</linearGradient>
				<path style="fill:url(#SVGID_00000154416773698419863020000012654978651484008856_);" d="M1791.148,819.067
					c0,0,16.482-40.386-45.687-32.244c-62.17,8.142-47.06,31.614-51.974,49.955c-4.914,18.341-30.996,39.127-103.578,67.427
					c-72.581,28.299-51.062,105.451-18.461,131.059c32.601,25.607,50.381,8.587,57.964,52.784
					c7.583,44.197,37.831,80.092,75.571,42.625c37.74-37.466,80.635-81.77,68.639-139.864
					c-11.996-58.094,1.589-47.104,25.007-73.755C1822.048,890.403,1772.41,864.607,1791.148,819.067z"/>
				
					<linearGradient id="SVGID_00000034799526187286235890000009875917655713710250_" gradientUnits="userSpaceOnUse" x1="-276.5257" y1="872.9448" x2="-388.7526" y2="1010.912" gradientTransform="matrix(-1 0 0 1 1506.2441 0)">
					<stop  offset="0" style="stop-color:#FF928E"/>
					<stop  offset="1" style="stop-color:#FEB3B1"/>
				</linearGradient>
				<path style="fill:url(#SVGID_00000034799526187286235890000009875917655713710250_);" d="M1777.273,927.209
					c9.871-10.012,19.474,14.052,22.037,20.083c6.472,15.228,13.201,28.896,26.861,39.331c8.451,6.456,19.872,10.595,30.565,7.493
					c38.512-11.173,38.691-42.108,39.558-65.281c-0.893-6.573,3.049-13.087,7.825-15.119c5.545-2.36,7.667-8.097,7.667-8.097
					s3.768,8.354-0.863,12.271c-1.618,1.369-2.094,2.987-2.043,4.517c0.541-0.091,1.097-0.173,1.68-0.247
					c11.577-1.447-0.043,15.123-0.043,15.123s11.206,60.655-40.126,84.76c-25.41,11.932-44.899,9.104-58.142,3.2
					c-6.689-2.336-12.46-6.532-17.395-11.884c-1.987-1.984-3.002-3.324-3.002-3.324l-0.003-0.191
					C1771.364,983.795,1767.808,936.811,1777.273,927.209z"/>
				
					<linearGradient id="SVGID_00000002372219397282801000000006807567584616351161_" gradientUnits="userSpaceOnUse" x1="-39.7504" y1="828.4739" x2="-193.2747" y2="1017.2104" gradientTransform="matrix(-1 0 0 1 1506.2441 0)">
					<stop  offset="0" style="stop-color:#FF928E"/>
					<stop  offset="1" style="stop-color:#FEB3B1"/>
				</linearGradient>
				<path style="fill:url(#SVGID_00000002372219397282801000000006807567584616351161_);" d="M1579.176,869.733
					c0.984-1.881,3.767-1.584,4.335,0.46c2.104,7.571,7.194,20.782,17.876,25.472c0.413,0.182,0.891,0.14,1.265-0.112
					c0.375-0.252,0.593-0.677,0.581-1.129c-0.025-0.937-0.306-1.932-0.975-2.955c-1.401-2.142-1.144-4.614-0.378-6.757
					c0.328-0.918,1.181-1.546,2.156-1.586c0.975-0.04,1.876,0.514,2.28,1.403c0.749,1.649,1.898,3.427,3.654,4.883
					c3.997,3.311,5.916,10.678,3.184,16.722c-5.781,22.457-14.439,52.158,19.284,73.855c33.722,21.698,81.213-40.949,81.213-40.949
					l2.124,56.71c0,0-62.076,44.86-104.394,7.108c-42.319-37.752-14.269-92.687-14.269-92.687S1564.835,897.151,1579.176,869.733z"
					/>
				
					<linearGradient id="SVGID_00000105424565769210741640000002707346402980444800_" gradientUnits="userSpaceOnUse" x1="7347.3774" y1="1739.2915" x2="7343.6431" y2="2198.6399" gradientTransform="matrix(0.9922 -0.1247 0.1247 0.9922 -5696.1592 630.3192)">
					<stop  offset="0" style="stop-color:#4042E2"/>
					<stop  offset="1" style="stop-color:#4F52FF"/>
				</linearGradient>
				<path style="fill:url(#SVGID_00000105424565769210741640000002707346402980444800_);" d="M1776.846,923.361
					c-10.087-3.024-39.459-8.608-67.396,17.174c-4.738,4.373-6.675,11.017-4.985,17.239c7.504,27.625,27.302,109.243,9.943,144.558
					c0,0,30.591,33.723,63.965,6.543c0,0,14.974-65.262,34.587-93.912c13.541-19.78-21.591-74.277-30.48-87.442
					C1781.133,925.527,1779.15,924.052,1776.846,923.361z"/>
				
					<linearGradient id="SVGID_00000124143495940324693250000014714844276764587398_" gradientUnits="userSpaceOnUse" x1="1763.5775" y1="871.7738" x2="1731.8899" y2="982.0938">
					<stop  offset="0" style="stop-color:#FF928E"/>
					<stop  offset="1" style="stop-color:#FEB3B1"/>
				</linearGradient>
				<path style="fill:url(#SVGID_00000124143495940324693250000014714844276764587398_);" d="M1748.993,868.477
					c0,0-14.918,42.199-16.041,60.815c0,0,16.489,7.498,32.025-5.157c0,0,1.63-42.149,3.986-49.697L1748.993,868.477z"/>
				
					<linearGradient id="SVGID_00000001661293400560119980000008474677332375477136_" gradientUnits="userSpaceOnUse" x1="1754.1167" y1="783.2161" x2="1761.1583" y2="895.8829">
					<stop  offset="0" style="stop-color:#FF928E"/>
					<stop  offset="1" style="stop-color:#FEB3B1"/>
				</linearGradient>
				<path style="fill:url(#SVGID_00000001661293400560119980000008474677332375477136_);" d="M1781.072,826.106
					c-1.59-5.941-6.224-10.591-12.161-12.194c-7.946-2.145-19.091-3.92-26.173,0.188c-11.999,6.96-11.997,38.19-11.997,38.19
					s15.337,45.193,42.259,36.772C1793.576,882.627,1785.854,843.968,1781.072,826.106z"/>
				
					<linearGradient id="SVGID_00000094578365800583338590000009307956795299233717_" gradientUnits="userSpaceOnUse" x1="1637.7358" y1="1139.3193" x2="1746.8817" y2="810.7075">
					<stop  offset="0" style="stop-color:#09005D"/>
					<stop  offset="1" style="stop-color:#1A0F91"/>
				</linearGradient>
				<path style="fill:url(#SVGID_00000094578365800583338590000009307956795299233717_);" d="M1721.281,810.407
					c7.385-17.782,30.373-12.516,30.373-12.516s17.926,4.248,20.439,12.358c1.13,3.649-3.902,7.178-10.493,9.991
					c-14.678,6.264-25.346,19.46-28.366,35.131l-0.695,3.607C1732.539,858.978,1713.897,828.189,1721.281,810.407z"/>
				
					<linearGradient id="SVGID_00000071556763859575636390000007282193542196543666_" gradientUnits="userSpaceOnUse" x1="-9784.0244" y1="1162.1044" x2="-9776.9834" y2="1274.7676" gradientTransform="matrix(-1 -0.0109 -0.0109 1 -7999.1733 -949.3087)">
					<stop  offset="0" style="stop-color:#FF928E"/>
					<stop  offset="1" style="stop-color:#FEB3B1"/>
				</linearGradient>
				<path style="fill:url(#SVGID_00000071556763859575636390000007282193542196543666_);" d="M1743.563,856.662
					c0,0-9.438-21.237-18.544-12.012c-9.105,9.224,7.265,23.177,15.428,19.766L1743.563,856.662z"/>
				
					<linearGradient id="SVGID_00000021812593818786773960000017539924652784478109_" gradientUnits="userSpaceOnUse" x1="1759.9293" y1="1361.0178" x2="1776.3599" y2="1542.928">
					<stop  offset="0" style="stop-color:#FF928E"/>
					<stop  offset="1" style="stop-color:#FEB3B1"/>
				</linearGradient>
				<path style="fill:url(#SVGID_00000021812593818786773960000017539924652784478109_);" d="M1817.334,1245.9
					c-0.115,2.963,5.087,26.463,7.918,38.998c1.139,5.043,0.346,10.322-2.222,14.81l-98.042,165.01
					c-1.186,1.996-2.049,4.158-2.575,6.42c-1.797,7.743-5.523,26.721-3.578,43.986l5.072,10.534l-21.935-4.981l-4.772-58.906
					l6.21-3.786c5.365-3.271,9.542-8.161,11.934-13.971c8.865-21.535,30.88-76.351,36.555-103.066
					c6.449-30.361,40.164-55.021,40.164-55.021l-5.923-14.004L1817.334,1245.9z"/>
				
					<linearGradient id="SVGID_00000025438545806605724000000003789107090072960157_" gradientUnits="userSpaceOnUse" x1="7217.063" y1="1512.2941" x2="7269.7095" y2="1512.2941" gradientTransform="matrix(1 -0.0095 0.0095 1 -5553.8892 51.0736)">
					<stop  offset="0" style="stop-color:#4042E2"/>
					<stop  offset="1" style="stop-color:#4F52FF"/>
				</linearGradient>
				<path style="fill:url(#SVGID_00000025438545806605724000000003789107090072960157_);" d="M1677.594,1500.407
					c0,0,11.845-18.78,13.239-26.09c1.394-7.31,5.274-20.219,12.577-16.333c0,0,3.441,35.511,2.255,49.386
					c-1.187,13.876,15.686,13.429,15.686,13.429s4.65,0.654,8.055,4.058c2.351,2.351,0.67,6.43-2.648,6.644
					c-5.521,0.356-14.291,0.449-23.5-1.331c-3.218-0.622-5.604-3.36-5.799-6.632l-2.431-40.87l-14.942,18.867L1677.594,1500.407z"/>
				
					<linearGradient id="SVGID_00000001653760586496980880000002716214112389213870_" gradientUnits="userSpaceOnUse" x1="1788.0724" y1="1245.7496" x2="1736.4333" y2="1449.9585">
					<stop  offset="0" style="stop-color:#FF928E"/>
					<stop  offset="1" style="stop-color:#FEB3B1"/>
				</linearGradient>
				<path style="fill:url(#SVGID_00000001653760586496980880000002716214112389213870_);" d="M1758.764,1272.184
					c0,0-3.458,147.601-3.927,168.564c-0.468,20.963,3.311,67.419,24.325,81.305l-9.144,6.77c0,0-11.428-9.713-22.593-28.406
					c-12.542-21-16.335-24.836-16.335-24.836l4.162-8.523c1.822-3.731,2.358-7.952,1.518-12.019
					c-4.535-21.979-19.684-95.087-23.817-110.83c-4.878-18.585-5.225-43.403,11.746-64.177
					C1741.672,1259.257,1758.764,1272.184,1758.764,1272.184z"/>
				
					<linearGradient id="SVGID_00000122687970239425776630000010523444572760806059_" gradientUnits="userSpaceOnUse" x1="7265.873" y1="1521.8025" x2="7328.6333" y2="1521.8025" gradientTransform="matrix(1 -0.0095 0.0095 1 -5553.8892 51.0736)">
					<stop  offset="0" style="stop-color:#4042E2"/>
					<stop  offset="1" style="stop-color:#4F52FF"/>
				</linearGradient>
				<path style="fill:url(#SVGID_00000122687970239425776630000010523444572760806059_);" d="M1739.358,1535.475
					c-0.652,0.007-1.206-0.46-1.298-1.106c-0.7-4.921-3.61-24.649-5.993-29.757c-2.729-5.85-11.644-30.474,0.005-32.564
					c0,0,28.958,42.308,34.517,48.012c5.559,5.704,12.575,1.993,12.575,1.993s5.416,1.6,9.501,6.82
					c1.943,2.484,0.133,6.131-3.022,6.161l-19.505,0.186c-5.664,0.054-10.759-3.388-12.865-8.646
					c-3.433-8.576-9.331-21.154-16.205-26.734l3.572,34.201C1740.719,1534.803,1740.125,1535.468,1739.358,1535.475
					L1739.358,1535.475z"/>
				
					<linearGradient id="SVGID_00000051363902005721868070000001900764892983848895_" gradientUnits="userSpaceOnUse" x1="1777.7058" y1="1301.1442" x2="1723.7194" y2="1115.7131">
					<stop  offset="0" style="stop-color:#09005D"/>
					<stop  offset="1" style="stop-color:#1A0F91"/>
				</linearGradient>
				<path style="fill:url(#SVGID_00000051363902005721868070000001900764892983848895_);" d="M1782.99,1092.961
					c0,0-4.395,14.01,2.357,37.085l41.888,146.276c0.658,2.298-0.583,4.704-2.833,5.511c-12.53,4.497-53.719,17.207-109.945,13.331
					c-2.831-0.195-5.204-2.2-5.82-4.97c-3.705-16.676-16.345-73.573-18.948-85.263c-9.917-44.546-20.99-92.585,27.723-121.633
					C1739.862,1092.914,1760.801,1098.582,1782.99,1092.961z"/>
				<g>
					
						<linearGradient id="SVGID_00000133511319719772265600000003717991134685400473_" gradientUnits="userSpaceOnUse" x1="-394.67" y1="917.5717" x2="-391.1812" y2="1000.4331" gradientTransform="matrix(-1 0 0 1 1506.2441 0)">
						<stop  offset="0" style="stop-color:#2B3582"/>
						<stop  offset="1" style="stop-color:#150E42"/>
					</linearGradient>
					<path style="fill:url(#SVGID_00000133511319719772265600000003717991134685400473_);" d="M1880.044,952.633
						c-1.125-2.476-0.844-5.72-0.59-8.285c0.588-5.945,0.539-11.872,0.636-17.844c0.25-15.473,0.113-30.986,1.339-46.422
						c0.265-3.332-0.092-6.673,0.168-9.991c0.66-8.42,5.598-10.905,13.814-12.662c6.949-1.486,14.525-3.532,21.705-2.006
						c2.828,0.601,5.549,2.148,5.902,5.1c1.426,11.918,1.071,90.013-13.313,92.161c-4.857,0.726-9.678,1.576-14.507,2.446
						c-3.433,0.618-8.024,1.922-11.482,0.759C1881.828,955.254,1880.698,954.073,1880.044,952.633z"/>
					
						<linearGradient id="SVGID_00000034799054133435747450000000656296221796004021_" gradientUnits="userSpaceOnUse" x1="-357.0317" y1="852.1004" x2="-429.3252" y2="940.975" gradientTransform="matrix(-1 0 0 1 1506.2441 0)">
						<stop  offset="0" style="stop-color:#2B3582"/>
						<stop  offset="1" style="stop-color:#150E42"/>
					</linearGradient>
					<path style="fill:url(#SVGID_00000034799054133435747450000000656296221796004021_);" d="M1885.75,952.633
						c-1.124-2.476-0.844-5.72-0.59-8.285c0.588-5.945,0.539-11.872,0.636-17.844c0.25-15.473,0.113-30.986,1.339-46.422
						c0.265-3.332-0.092-6.673,0.168-9.991c0.66-8.42,5.598-10.905,13.814-12.662c6.949-1.486,14.525-3.532,21.705-2.006
						c2.828,0.601,5.549,2.148,5.902,5.1c1.427,11.918,1.071,90.013-13.313,92.161c-4.858,0.726-9.678,1.576-14.507,2.446
						c-3.433,0.618-8.024,1.922-11.482,0.759C1887.534,955.254,1886.404,954.073,1885.75,952.633z"/>
				</g>
				
					<linearGradient id="SVGID_00000179629191659542244720000015628395408899435957_" gradientUnits="userSpaceOnUse" x1="-396.576" y1="889.041" x2="-430.4327" y2="930.663" gradientTransform="matrix(-1 0 0 1 1506.2441 0)">
					<stop  offset="0" style="stop-color:#FF928E"/>
					<stop  offset="1" style="stop-color:#FEB3B1"/>
				</linearGradient>
				<path style="fill:url(#SVGID_00000179629191659542244720000015628395408899435957_);" d="M1925.198,935.579
					c0,0,3.147-2.138,5.734-14.912c2.587-12.775,5.153-20.512,0-26.439c-5.153-5.927-13.141-6.184-13.141,0
					s1.339,17.576,0.412,26.439C1917.275,929.529,1919.464,950.491,1925.198,935.579z"/>
				<path style="fill:#BDD0FB;" d="M1727.106,806.086c-5.956,1.265-11.698,4.09-16.104,8.505c-2.156,2.25-3.842,4.958-4.942,7.895
					l-0.731,2.241l-0.419,2.317c-0.296,1.561-0.439,3.003-0.69,4.503c-2.18,11.835-7.379,23.133-15.106,32.35
					c-3.809,4.648-8.245,8.784-13.162,12.247c-4.894,3.518-10.351,6.1-15.856,8.733c-5.498,2.606-11.077,5.044-16.737,7.282
					c-5.642,2.286-11.376,4.36-17.252,6.001c11.962-2.54,23.436-6.992,34.645-11.84c5.593-2.398,11.194-5.106,16.278-8.64
					c5.089-3.509,9.706-7.716,13.672-12.47c7.815-9.591,13.176-21.194,15.078-33.413c0.208-1.514,0.321-3.117,0.556-4.56
					l0.325-2.196l0.625-2.127c0.948-2.798,2.468-5.405,4.454-7.641C1715.735,810.796,1721.279,807.791,1727.106,806.086z"/>
				<path style="fill:#BDD0FB;" d="M1569.269,934.064c-4.963,7.293-8.462,15.563-10.725,24.142
					c-2.24,8.596-2.885,17.642-1.798,26.519c1.304,8.844,4.45,17.422,9.305,24.896c1.288,1.816,2.486,3.692,3.937,5.378
					c0.707,0.855,1.374,1.743,2.111,2.571l2.266,2.431c1.477,1.653,3.223,3.035,4.815,4.557c1.659,1.454,3.432,2.777,5.155,4.141
					c-6.553-5.873-12.418-12.484-16.938-19.917c-2.122-3.788-4.177-7.625-5.574-11.735c-1.429-4.089-2.453-8.311-3.035-12.6
					c-1.219-8.585-0.575-17.372,1.293-25.873c0.921-4.261,2.195-8.45,3.739-12.544
					C1565.319,941.918,1567.141,937.917,1569.269,934.064z"/>
			</g>
			<g>
				
					<linearGradient id="SVGID_00000039124392253948121960000003712426249246129293_" gradientUnits="userSpaceOnUse" x1="1905.1582" y1="780.426" x2="1869.95" y2="998.718">
					<stop  offset="0" style="stop-color:#FE7062"/>
					<stop  offset="0.5304" style="stop-color:#FE7164"/>
					<stop  offset="0.7214" style="stop-color:#FE776B"/>
					<stop  offset="0.8575" style="stop-color:#FE8076"/>
					<stop  offset="0.9668" style="stop-color:#FF8D87"/>
					<stop  offset="1" style="stop-color:#FF928E"/>
				</linearGradient>
				<path style="fill:url(#SVGID_00000039124392253948121960000003712426249246129293_);" d="M2004.52,672.081h-180.75
					c-16.258,0-29.437,13.179-29.437,29.437v46.38c0,16.258,13.18,29.438,29.437,29.438h55.823c1.398,0,2.665,0.819,3.239,2.093
					l23.13,51.347c0.499,1.108,1.584,1.836,2.799,1.878c1.214,0.041,2.347-0.61,2.921-1.681l27.734-51.762
					c0.618-1.154,1.822-1.874,3.131-1.874h61.973c16.258,0,29.437-13.18,29.437-29.438v-46.38
					C2033.957,685.261,2020.777,672.081,2004.52,672.081z"/>
				<g>
					<path style="fill:#FFFFFF;" d="M1968.258,723.487c0,18.348-7.199,29.848-20.805,29.848c-13.169,0-20.191-11.939-20.279-29.321
						c0-17.733,7.55-29.672,20.892-29.672C1961.85,694.341,1968.258,706.631,1968.258,723.487z M1938.059,724.013
						c-0.087,13.871,3.776,21.069,9.745,21.069c6.321,0,9.657-7.726,9.657-21.42c0-13.255-3.161-21.068-9.657-21.068
						C1942.01,702.594,1937.971,709.704,1938.059,724.013z"/>
					<path style="fill:#FFFFFF;" d="M2015.302,723.487c0,18.348-7.198,29.848-20.805,29.848c-13.169,0-20.191-11.939-20.279-29.321
						c0-17.733,7.55-29.672,20.892-29.672C2008.894,694.341,2015.302,706.631,2015.302,723.487z M1985.103,724.013
						c-0.088,13.871,3.776,21.069,9.745,21.069c6.321,0,9.657-7.726,9.657-21.42c0-13.255-3.161-21.068-9.657-21.068
						C1989.054,702.594,1985.016,709.704,1985.103,724.013z"/>
					<path style="fill:#FFFFFF;" d="M1882.85,751.683v-6.335l6.505-5.997c12.925-11.995,19.007-18.584,19.091-25.848
						c0-4.899-2.618-9.208-9.798-9.208c-4.815,0-8.954,2.45-11.742,4.561l-3.041-7.349c3.971-3.21,9.969-5.66,16.894-5.66
						c12.163,0,18.077,7.687,18.077,16.641c0,9.63-6.926,17.4-16.471,26.27l-4.815,4.139v0.168h22.553v8.617H1882.85z"/>
				</g>
				<g>
					<path style="fill:#FFFFFF;" d="M1856.253,710.752c0,7.229-5.86,15.032-13.089,15.032s-13.089-7.804-13.089-15.032
						c0-7.229,5.86-12.357,13.089-12.357S1856.253,703.523,1856.253,710.752z"/>
					<path style="fill:#FFFFFF;" d="M1826.921,753.615h31.951c3.363,0,6.341-2.174,7.366-5.377l1.719-5.374
						c1.259-3.935-0.788-8.195-4.668-9.613c-13.003-4.754-26.448-4.144-40.222,0.439c-3.859,1.284-6,5.411-4.935,9.336l1.324,4.88
						C1820.371,751.275,1823.43,753.615,1826.921,753.615z"/>
				</g>
			</g>
		</g>
		<g>
			<path style="fill:#BDD0FB;" d="M589.799,821.366c0,6.615-5.363,11.978-11.978,11.978H246.008
				c-6.615,0-11.978-5.363-11.978-11.978v-1.248c0-6.615,5.363-11.978,11.978-11.978h331.814c6.615,0,11.978,5.363,11.978,11.978
				V821.366z"/>
			<path style="fill:#BDD0FB;" d="M545.207,921.442c0,5.954-4.827,10.78-10.78,10.78H316.546c-5.954,0-10.78-4.827-10.78-10.78
				v-0.735c0-5.954,4.827-10.78,10.78-10.78h217.881c5.954,0,10.78,4.827,10.78,10.78V921.442z"/>
			<path style="fill:#BDD0FB;" d="M615.004,873.942c0,5.954-4.827,10.78-10.78,10.78H386.342c-5.954,0-10.78-4.827-10.78-10.78
				v-0.735c0-5.954,4.827-10.78,10.78-10.78h217.881c5.954,0,10.78,4.827,10.78,10.78V873.942z"/>
		</g>
		<g>
			<path style="fill:#BDD0FB;" d="M2324.298,911.687c0,6.267-5.08,11.347-11.347,11.347h-313.687
				c-6.267,0-11.347-5.08-11.347-11.347v-1.541c0-6.267,5.08-11.347,11.347-11.347h313.687c6.267,0,11.347,5.08,11.347,11.347
				V911.687z"/>
			<path style="fill:#BDD0FB;" d="M2249.654,984.557c0,5.64-4.572,10.213-10.213,10.213h-206.415
				c-5.64,0-10.213-4.572-10.213-10.213v-0.902c0-5.64,4.572-10.213,10.213-10.213h206.415c5.64,0,10.213,4.572,10.213,10.213
				V984.557z"/>
			<path style="fill:#BDD0FB;" d="M2187.612,949.659c0,5.64-4.572,10.213-10.212,10.213h-206.415
				c-5.64,0-10.213-4.572-10.213-10.213v-0.902c0-5.64,4.572-10.213,10.213-10.213H2177.4c5.64,0,10.212,4.572,10.212,10.213
				V949.659z"/>
		</g>
	</g>
</g>
</svg>
